<?xml version="1.0" encoding="utf-8"?>
<!-- Generator: Adobe Illustrator 21.1.0, SVG Export Plug-In . SVG Version: 6.00 Build 0)  -->
<svg version="1.1" id="Layer_1" xmlns="http://www.w3.org/2000/svg" xmlns:xlink="http://www.w3.org/1999/xlink" x="0px" y="0px"
	 viewBox="0 0 5129.6 1621.3" style="enable-background:new 0 0 5129.6 1621.3;" xml:space="preserve">
<style type="text/css">
	.st0{fill:#90B59B;}
	.st1{fill:#BCD2C1;}
	.st2{fill:#9FBFA8;}
	.st3{fill:#AECAB5;}
	.st4{fill:#54906C;}
	.st5{fill:#679C7A;}
	.st6{fill:#6FA07E;}
	.st7{fill:#79A887;}
	.st8{fill:#82AD8F;}
	.st9{fill:#6EA07F;}
	.st10{fill:#ADC9B4;}
	.st11{fill:#357C56;}
	.st12{fill:#41845E;}
	.st13{fill:#231F20;}
</style>
<g>
	<path class="st0" d="M1151,154.4c2,1.2,4.1,2.3,6.1,3.5c11.8,8.9,22.7,18.8,32.7,29.7c14.7,16,29.1,32,42.4,49.2
		c28.6,37,52.1,77,70.8,119.8c16.4,37.7,28.8,76.7,36.7,117c0.7,3.7,2.8,7.6,0.2,11.5c-4.3,0.7-6.9-2.3-9.7-4.5
		c-54-43.4-113.7-76.4-179.3-98.3c-34.2-11.4-69.1-20.2-105-24.2c-2.1-0.2-4.1-0.8-6.2-1.5c-0.8-0.3-1.5-0.6-2.1-1
		c-19.3-23.9-39-47.3-61.3-68.5c-38.4-36.4-80.9-67.2-127.5-92.3c-20.1-10.8-40.9-19.8-62-28.5c-8.1-3.3-15.5-3.3-23.7,0
		c-59.2,23.5-113.4,55.5-162.2,96.6c-29.8,25.1-57,52.8-80.8,83.7c-2.4,3.1-4.6,6.5-7.8,8.9c-0.7,0.4-1.5,0.7-2.2,0.9
		c-40.6,5.9-80.5,14.8-119.3,28.3C329.8,406,274.5,437.3,223.7,477c-4.1,3.2-7.3,7.8-13.1,8.3c-2.3-2.2-1.3-4.9-0.9-7.5
		c8.3-43.9,21.9-86.1,40.1-126.8c21.5-48.1,49.3-92.4,83.2-132.7c18.4-21.8,37.4-43.1,60.2-60.5c2-1.2,4.1-2.3,6.1-3.5
		c16.3-8.7,34.4-12.1,52.1-16.2c50.5-11.8,101.9-16.7,153.6-14.4c53.6,2.4,106.3,11.3,157,29.4c9,3.2,17.1,3.2,26.1,0
		c41.9-14.9,85.2-23.7,129.3-27.5c75.1-6.5,149,0.8,221.2,23.2C1143.1,150.2,1147.1,152.1,1151,154.4z"/>
	<path class="st1" d="M393.2,157.9c-11.8,12-23.8,23.9-35.5,36c-35,36.4-63.9,77.1-88,121.4c-23.2,42.7-40,87.9-52,134.8
		c-2.9,11.4-4.8,23.2-7.1,34.8c0.5,0.7,0.6,1.5,0.2,2.3c-6.1,8.4-14.7,14.5-22.3,21.3c-20.8,18.3-38.7,39.1-55.8,60.6
		C87.1,626.2,54,690,32.9,760c-4,13.2-7.4,26.5-10.6,39.9c-2,8.2-2,16.1-0.1,24.3C31.7,865.3,45,905,62.9,943.3
		c22.5,48,51.5,91.7,85.8,132c17.5,20.6,36.9,39.4,57.5,56.8c1.8,1.5,3.7,3,5,5.1c0.4,0.7,0.7,1.4,1,2.2c8,41.9,19.7,82.7,36.5,122
		c23,53.9,53.4,103.1,91.8,147.4c15.2,17.6,30.3,35.3,48.3,50.1c2.3,1.9,5.3,3.9,4.3,7.8c-18.1-4.4-35-12-51.7-19.7
		c-55.8-25.8-106.5-59.4-151.6-101.4c-60.7-56.5-106.8-123-139.1-199.4c-17.2-40.6-29.3-82.6-36.7-125.8c-4-23.3-6.2-47-7.3-70.7
		C6,932.1,6.3,914.8,7,897.4c1.1-25.1,3.7-50,8.7-74.5c2.6-12.8-1.1-24.6-2.8-36.8c-2.5-18.3-4.6-36.6-5.8-55
		c-1.4-21.4-1.1-42.7,0.1-64.1c2.6-45.5,10.5-90,23.8-133.6c19.8-65.1,50.1-125,91.1-179.3c31-41.1,67-77.4,107.8-108.9
		c48.6-37.4,101.6-66.5,159.5-86.5C390.6,158.4,391.9,158.2,393.2,157.9z"/>
	<path class="st1" d="M1339.7,485c-6.7-40.7-18.7-79.9-34.3-118c-15.2-37-34.2-71.9-57-104.7c-17-24.5-36-47.3-56.2-69.3
		c-11.2-12.3-24.7-22.2-35.2-35.2c29.1,8.4,56.4,21,83,35.2c30.8,16.5,60,35.5,87.3,57.4c30.6,24.5,58.4,51.8,83.6,81.9
		c30.9,36.9,56.5,77.1,77.2,120.5c23.9,50.1,40.5,102.5,48.8,157.5c3.5,23,5.3,46,6.5,69.2c2.3,42.4-2.1,84.2-9.5,125.8
		c-2,11.2,1.9,22,3.4,32.9c2.6,18,5,36,5.7,54.2c0.7,18.4,1.4,36.8,0.5,55.3c-2.1,46.6-9.5,92.2-22.3,137
		c-19.2,66.8-50.1,127.9-91.4,183.5c-31.6,42.7-68.7,80.1-111.1,112.3c-46.7,35.5-97.4,63.3-152.4,83.4c-2.9,1.1-6.1,1.7-9.1,2.5
		c-1.1-3.7,1.8-5.2,3.8-7.1c49.6-45.1,90-97.2,121.1-156.7c27-51.8,45.9-106.2,56-163.7c0.4-1.6,1.1-3,2.5-4.1
		c18.7-14,34.9-30.8,50.6-47.9c28.2-30.7,52.8-64.1,73.8-100.1c30.5-52.6,51.7-108.8,64.5-168.3c1-4.7,0.8-9.5-0.2-14.2
		c-10.2-48.4-26.6-94.8-49-138.8c-23.4-45.9-52.5-88-87.4-126.2c-16.3-17.8-33.9-34.1-51.9-50.1
		C1339.9,488.2,1339.1,486.8,1339.7,485z"/>
	<path class="st0" d="M393.1,1466.6c-4.6-7.3-12.3-11.5-18.2-17.4c-49.1-48.8-89.3-103.9-118.8-166.5c-20.3-43-35.3-87.9-44-134.8
		c-0.5-2.8-1-5.7-1.5-8.5c4.6-0.6,7.2,2.9,10.2,5.3c65.4,52.9,139.1,89.1,220.3,110.1c19.4,5,39.1,9.1,59.1,11.4
		c3.4,0.4,6.8,1.2,10,2.3c6.3,3.4,9.7,9.7,14,14.9c48.9,59.9,106.9,108.7,175.2,145.3c21.7,11.6,44.2,21.4,66.9,30.8
		c2.9,1.2,8,1.2,6.1,7c-7.1,5-15.5,6.5-23.5,9c-37.2,11.8-75.3,19.1-114,23.2c-4.7,0.5-9.5,0.3-14.3,0.3c-3.6-0.3-7.2-0.1-10.7,1
		c-6.6,1-13.2,0.6-19.9,0.6c-6.7-0.2-13.5-0.2-20.2,0c-6.2,0-12.3,0.4-18.4-0.6c-3.5-1.1-7.1-1.4-10.7-1.1
		c-45-1.5-88.6-11.1-131.6-24c-3.6-1.1-6.5-3.6-9.8-5.1C397.2,1468.9,395.2,1467.7,393.1,1466.6z"/>
	<path class="st2" d="M1339.8,1139.4c-2.9,22-8.7,43.3-14.9,64.5c-11.2,37.9-26.8,73.9-45.5,108.7c-17.9,33.3-39.2,64.3-63.7,93.2
		c-17.4,20.5-35.5,40.4-56.2,57.9c-1,0.8-1.5,2.1-2.3,3.2c-2,1.1-4,2.2-6,3.3c-9.7,6.4-21,8.6-31.9,11.6
		c-60,16.5-121.2,22-183.1,18.8c-51.5-2.6-101.8-12.7-150.6-29.5c-2.7-0.9-5.6-1.7-7.8-3.7c-2.5-5.3,2.3-5.6,5.1-6.7
		c20.7-8.1,40.9-17.2,60.7-27.4c39.7-20.4,76.1-45.6,110.1-74.4c29.8-25.2,56.3-53.4,80-84.3c1.8-2.3,3.6-4.6,6.4-5.8
		c25.6-4.3,51.1-8.7,76.2-15.4c74.9-20,142.9-53.6,204.4-100.9C1326.6,1147.6,1331.6,1140.9,1339.8,1139.4z"/>
	<path class="st1" d="M1151,154.4c-23.7-6.1-47-13.7-71.2-17.9c-23.1-4-46.1-7.4-69.5-9.2c-20.4-1.6-40.7-1.6-60.9-1.1
		c-44.9,1.2-89,8.2-132.2,20.3c-1,0.3-2,0.6-3,0.9c-13.1,4-26.2,11-39.3,11c-12.8,0-25.6-7.2-38.5-11c-31.6-9.3-64-14.8-96.7-18.5
		c-29-3.3-58-4.2-86.9-2.6c-49.2,2.7-97.7,10.7-144.8,26.3c-2.7,0.9-5.4,2.4-8.4,1.8c17.2-17,36.7-31,56.7-44.3
		c66.1-44.1,138.2-73.4,216.5-87.5c41.2-7.4,82.7-11,124.4-9.1c50.2,2.3,99.5,10.3,147.6,25.3c55.9,17.4,108.1,42.5,156.2,75.8
		C1118.4,126.8,1135.8,139.2,1151,154.4z"/>
	<path class="st3" d="M777.5,1464.9c19.8,8.9,40.7,14,61.7,18.9c28.4,6.7,57.1,11,86.3,13.2c27.2,2,54.5,2.5,81.5,0.8
		c47.5-3,94.3-11.7,139.7-26.9c1.5-0.5,3-0.7,4.6-1c-22.5,21.5-47.8,39.2-74.1,55.5c-54.8,34-113.7,58.1-176.8,71.9
		c-29.1,6.4-58.5,10.5-88.3,12.5c-15.3,1-30.6,1.3-45.9,1.2c-50.1-0.5-99.3-7.9-147.5-21.5c-60.5-17.1-116.8-43.5-168.5-79.3
		c-17.8-12.3-35.6-24.7-50.8-40.2c23.1,6.9,46.2,13.7,70,18c23.7,4.3,47.4,9,71.6,8.9c3,2,6.6-0.3,9.6,1.5c6.4,0,12.7,0.1,19.1,0.1
		c6.9,1.2,13.7,1.2,20.6,0c6.9,0,13.8-0.1,20.6-0.1c3-1.8,6.6,0.5,9.6-1.5c52.6-2.4,103.2-14.1,152.6-32
		C774.5,1463.6,776,1463.7,777.5,1464.9z"/>
	<path class="st4" d="M1038.1,354.7c0.5,0,1,0.1,1.5,0.2c3.2,2,5.6,4.8,7.8,7.8c47.6,67.2,80.7,140.7,97,221.5
		c0.9,4.3,3,8.6,0.8,13.2c-5.5,1.9-8.1-2.8-11.3-5.4c-21.8-17.8-44.6-34-69-48c-32.4-18.7-65.9-35.1-101.6-46.3
		c-9.7-4.1-16.7-11.9-24.8-18.3c-46-36.9-96.6-65.8-151.4-87.3c-8.2-3.2-15.6-3.2-23.7,0c-59.1,23.3-113.2,55-161.6,96.1
		c-3.9,3.3-7.9,6.2-12.6,8.1c-46.6,16.3-90.5,38.2-131.6,65.4c-15.4,10.2-30.1,21.5-44.6,33c-2.1,1.7-3.9,4.6-7.5,3
		c-2-2.9-1.4-6.1-0.8-9.2c14.3-69.9,39.5-135.4,77.8-195.8c6.1-9.6,12.4-19.1,19-28.3c2.6-3.6,5-7.5,9.3-9.5c0.5,0,1-0.1,1.5-0.1
		c4.5-2.7,9.6-3.1,14.5-3.5c74.8-6.2,148.4,0.3,220.4,22.5c7.6,2.3,15.3,4.2,22.7,7.2c3.9,1.6,7.7,1.4,11.6,0
		c43.6-15.6,88.6-24.8,134.5-29.4c36.1-3.6,72.3-3.2,108.5-0.1C1029.1,351.6,1033.9,352,1038.1,354.7z"/>
	<path class="st5" d="M1038.1,354.7c-29.4-2.9-59-3.7-88.5-3.1c-26.9,0.6-53.4,4.1-79.9,8.7c-30.7,5.3-60.7,13.2-90,23.6
		c-2.9,1-5.6,1.3-8.5,0.3c-35.7-13.2-72.6-21.6-110.1-27.5c-37.4-5.8-75.2-5.9-112.9-5c-12.1,0.3-24.1,1.9-36.1,3
		c6.9-11,15.3-20.8,23.7-30.5c42.1-48.3,91.1-88.6,146.5-120.9c26.5-15.5,54.4-28,82.8-39.7c12.3-5.1,21.7,0.9,31.6,4.9
		c47.6,19.1,91.6,44.5,132.3,75.7c32.3,24.8,62.2,52.2,88.1,83.9C1024.3,336.7,1032.2,344.9,1038.1,354.7z"/>
	<path class="st6" d="M1144.5,597.7c-4.3-28.7-12-56.5-21.4-83.9c-19-55.5-46-106.9-80.8-154.2c-1.1-1.5-1.8-3.2-2.7-4.8
		c28.9,3.7,57.5,9.5,85.6,17.4c43.5,12.3,85,29.6,124.6,51.6c31.9,17.7,61.3,38.9,90,61.2c0.6,1,1.2,2.1,1.8,3.1
		c5.3,11.9,5.4,24.8,6.6,37.3c2.3,23.9,4.3,47.9,3.6,72c-2,71.2-15.5,140.1-42.2,206.3c-1,2.4-1.9,5-3.9,6.8
		c-5.6,2.4-6.1-2.5-7.5-5.5c-14-29.9-29.2-59.2-47.9-86.5c-27.1-39.6-57.9-75.9-94.2-107.5c-3.6-3.1-6.9-6.6-10.1-10.1
		C1145.1,600,1144.5,599,1144.5,597.7z"/>
	<path class="st7" d="M510.7,354.8c-20.6,28.1-39.3,57.5-54.8,88.7c-23.1,46.5-39.1,95.5-49.8,146.3c-0.5,2.6-0.3,5.3-0.4,7.9
		c-0.1,1.2-0.6,2.2-1.3,3.2c-15.8,14.4-31.2,29.2-46,44.6c-33.1,34.6-60.9,72.9-84.1,114.7c-8,14.3-15,29.1-22,43.9
		c-1.3,2.8-1.8,7.8-7.4,6.2c-6.1-8.6-8.7-18.6-12.1-28.3c-17.5-48.5-27.8-98.6-32.2-149.8c-3.9-44.9-1.4-89.6,5.4-134.1
		c0.7-4.3,2.1-8.1,4.5-11.7c0-0.5,0.1-0.9,0.2-1.4c38.7-32.2,80.6-59.5,126.3-80.6c49-22.6,100-39,153.7-46.7
		C497.2,356.8,504,355.8,510.7,354.8z"/>
	<path class="st8" d="M210.4,486.4c-3.9,22.5-6.6,45.1-8.1,68c-1,15.6-2,31.1-1.2,46.6c1.5,30.7,4.1,61.3,9.9,91.5
		c6.7,35.3,16.4,69.6,29.3,103.1c2,5.1,4.5,10,6.7,15c1.1,1.1,1.4,2.4,1.3,3.9c-7.8,21.9-16.2,43.5-22.5,65.9
		c-12.2,43.4-19.1,87.5-21.3,132.6c-1.9,38.7,1.5,76.9,6.4,115.1c0.4,3.3,1.9,6.7-0.6,9.9c-43.8-35.6-80.1-77.9-110.9-125
		c-39.1-59.8-65.7-124.9-80.5-194.9c-1.5-7,0.3-13.6,1.9-20.3c11.8-51.2,29.9-100.1,54.9-146.3c19.7-36.3,43-70,70-101.4
		C165.6,527.2,187.2,506,210.4,486.4z"/>
	<path class="st6" d="M210.3,1138c-4-24.9-7.7-49.8-7.7-75.1c0-10.8-2-21.4-1.7-32.3c2.4-73.4,15.9-144.5,44.1-212.6
		c0.6-1.5,1.4-2.8,2.1-4.3c3.7-0.2,4,2.9,5,5.2c19,42,41.9,81.7,70.4,118.1c22,28.1,46.2,54.2,73.2,77.7c3.4,3,6.5,6.2,9.6,9.4
		c0.8,0.9,1.4,1.9,1.9,3c6.2,27.9,12.7,55.6,21.9,82.8c18.3,54.1,44.5,103.9,77.6,150.4c1.8,2.6,4.1,4.9,4.5,8.3
		c-0.1,0.4-0.3,0.8-0.4,1.1c-43.9-5-86.4-15.7-127.8-30.8c-46.8-17.1-90.7-39.9-131.4-68.7c-13.9-9.9-27.3-20.6-41-30.9
		C210.4,1138.9,210.4,1138.5,210.3,1138z"/>
	<path class="st0" d="M1303.3,810.6c5.6-8.4,7.9-18.3,11.4-27.6c11.9-31.6,20.5-64.3,26.1-97.6c3.7-21.7,6.3-43.7,7.2-65.8
		c0.6-13.7,1.7-27.4,1.2-41.1c-1-27.6-2.6-55.2-7.5-82.4c-0.5-2.6-0.2-5.3-0.3-7.9c19,14.8,35.9,31.7,52.2,49.5
		c20.6,22.4,39.1,46.3,55.9,71.6c39.8,60.1,66.6,125.7,82,196c2.2,10-1.3,19.4-3.5,28.8c-11.2,46.9-28,91.9-50.5,134.5
		c-19.2,36.2-42.2,70-68.7,101.4c-19.1,22.7-40,43.5-62.1,63.3c-1.6,1.4-3,3.1-5.4,2.9c-3.2-3.5-1.7-7.5-1.2-11.3
		c4.5-32.2,7.7-64.6,6.8-97.2c-2-70.7-15.1-139.2-41.8-204.9c-1.1-2.7-2.3-5.3-2.9-8.2C1302,813.1,1302.3,811.7,1303.3,810.6z"/>
	<path class="st9" d="M1303.3,813.8c13.8,28.6,22.4,59,30,89.7c6.5,26,10.4,52.5,13,79.3c2.3,23.7,4,47.3,2.8,71.1
		c-1.2,24.6-2.7,49.3-7.2,73.7c-0.5,2.8-0.4,5.8-0.6,8.7c-1.3,0.7-1.4,2-1.5,3.3c-38.1,32.1-79.9,58.6-124.9,79.9
		c-48.4,22.9-99,38.8-151.8,47.3c-7.8,1.3-15.5,2.9-23.4,3.2c-0.2-0.4-0.3-0.7-0.5-1.1c0.1-2.5,1.6-4.5,3-6.4
		c51.4-70.2,84-148.5,100.6-233.7c0.4-1.6,1.2-3,2.2-4.3c15.7-13.8,30.4-28.6,44.9-43.6c31.8-32.8,58.7-69.3,81.4-108.9
		c9.7-17,18.6-34.4,26.9-52.1C1299.3,817.5,1299.2,813.7,1303.3,813.8z"/>
	<path class="st9" d="M777.5,1464.9c-1.6,0-3.1-0.1-4.7-0.1c-15.2-6.7-30.3-13.5-45.5-20.1c-29.6-12.9-56.9-29.8-83.7-47.7
		c-37.2-25-69.8-55.3-100.3-87.9c-11.7-12.4-21.9-26.3-32.7-39.5l0.1-0.2c6.7-3.4,13.5-0.6,20.2-0.2c23.7,1.1,47.3,2.9,71.2,1.7
		c37.2-1.8,73.7-6.9,109.9-15c21-4.7,41.2-11.7,61.8-17.8c1.4-0.3,2.8-0.3,4.2,0.1c46.9,15.9,94.7,27.4,144.3,30.8
		c18.7,1.3,37.3,3.6,56,2.7c17.6-0.9,35.3-1.7,52.9-3.5c2.8-0.3,5.8-1.2,8.3,1.2c0,0,0.2,0.2,0.2,0.2
		c-17.8,23.9-37.3,46.6-58.9,67.1c-35.6,33.9-74.5,63.6-117.5,87.7C835.7,1440.2,806.8,1453,777.5,1464.9z"/>
	<path class="st10" d="M590.1,1498.4c-6.9,2.5-13.7,2.5-20.6,0C576.3,1498.4,583.2,1498.4,590.1,1498.4z"/>
	<path class="st2" d="M550.4,1498.3c-3.2-0.4-6.7,1.3-9.6-1.5C544,1497.2,547.6,1495.6,550.4,1498.3z"/>
	<path class="st2" d="M620.3,1496.8c-2.8,2.8-6.4,1.1-9.6,1.5C613.6,1495.6,617.1,1497.2,620.3,1496.8z"/>
	<path class="st11" d="M588.5,494.6c15.5-9.1,28.1-22,42.6-32.5c41.5-30,85.9-54.3,133.6-72.7c7.8-3,14.7-2.4,22,0.5
		c55.6,21.9,107,50.8,153.4,88.6c7.5,6.1,14.5,13.1,23.1,17.7c2.4,1.6,4.9,3,7.1,5c46.6,43.4,85.4,92.8,115.8,148.8
		c26.7,49.1,45.5,101,57.7,155.5c0.5,2.1,0.8,4.1,0.9,6.3c0.1,0.8,0,1.6,0,2.4c-12.4,61.2-34.1,118.9-65.3,173
		c-21.6,37.5-47.1,72.1-76.4,104c-12.9,14.1-26.8,27-40.7,40c-1.4,1.1-2.9,2-4.5,2.5c-121.8,40.1-243.5,40.3-365.2-0.1
		c-1.7-0.4-3.2-1.3-4.6-2.3c-36.9-32.5-68.8-69.4-96.1-110.2c-42.2-62.9-70.8-131.6-86.3-205.7c-0.2-2-0.2-4,0-6
		c9.9-47.9,25.6-93.9,47.2-137.8c21.9-44.6,49-85.9,81.8-123.4C551.2,529,568.7,510.6,588.5,494.6z"/>
	<path class="st12" d="M1142.9,812.2c-2.1-16-6.7-31.3-11.2-46.7c-8.7-29.9-19.4-59.1-32.9-87.1c-17.9-37-39.6-71.8-64.6-104.7
		c-20.2-26.6-43.9-49.8-67.4-73.4c-1.3-1.3-2.3-2.8-3.5-4.3c13.9,2.4,26.4,8.8,39.2,14.2c35,14.9,68.3,33,99.3,55
		c14.6,10.3,28.4,21.6,42.6,32.4c0.5,0.5,1,1.1,1.5,1.6c5.8,11.2,5.2,23.6,7.1,35.6c4.5,29.2,3.8,58.6,3.2,87.9
		c-0.5,27.8-4.3,55.3-9.2,82.7C1146.7,808.1,1146.9,811.7,1142.9,812.2z"/>
	<path class="st12" d="M588.5,494.6c-11.4,11.7-22.9,23.4-34.3,35.1C522.3,562.1,496,598.8,473,638c-20.3,34.7-36.3,71.3-49,109.4
		c-6.7,20.2-11.8,40.9-16.6,61.6c-4.5-0.9-4.5-4.8-5-8c-4.5-26.5-7.9-53.2-8.5-80.1c-0.8-36.4,0.2-72.8,6.5-108.8
		c0.8-4.4,1.4-8.9,3.9-12.8c0.5-0.6,1-1.1,1.5-1.7c29.1-23.6,59.6-45.2,92.5-63.2C527.3,518.7,557.2,505.1,588.5,494.6z"/>
	<path class="st4" d="M1142.9,812.2c3.6-10.4,4.6-21.4,6.1-32.2c5.1-35.5,6.1-71.3,4.9-107.1c-0.8-22-3.7-43.9-7-65.7
		c-0.4-2.6-0.6-5.2-0.8-7.8c24.2,21.2,47.3,43.5,68,68.3c20.6,24.8,39.6,50.6,55.8,78.4c11.3,19.4,21.5,39.4,30.6,59.9
		c0.7,1.6,1.9,3.1,2.9,4.6c0,1.1,0,2.1,0,3.2c-15.7,32.8-32.4,65-52.8,95.3c-26.3,39-57.8,73.2-91.7,105.5c-4,3.8-8.5,7-12.8,10.5
		c-3-3.2-1.8-7-1.2-10.6c4.8-31.6,7.1-63.3,7-95.4c-0.1-29.4-3.1-58.5-7.5-87.4c-0.9-6-0.5-12-1.4-17.9
		C1142.9,813.2,1142.9,812.7,1142.9,812.2z"/>
	<path class="st4" d="M404.3,599.4c-0.3,14-3.8,27.5-5.2,41.4c-1.9,18.9-2.6,37.7-2.9,56.7c-0.6,36.4,2.9,72.4,9.6,108.1
		c0.2,1.2,1,2.3,1.6,3.5c0,2.1,0,4.2,0,6.3c-1.7,24.7-6.8,48.9-7.9,73.7c-1.1,23.5-1.2,46.9,0,70.4c1,19.5,3.6,38.9,6.4,58.2
		c0.4,2.6,0.5,5.3-1.7,7.4c-24.5-21-46.9-43.9-68-68.3c-22.8-26.5-42.3-55.1-59.7-85.3c-9.9-17.2-18.6-34.9-26.6-53
		c-0.7-1.6-1.9-3.1-2.9-4.6c0-1,0-2.1,0-3.1c15.5-34.5,33.2-67.8,54.9-98.8c17.3-24.6,35.6-48.3,57-69.6
		C373.7,627.5,387.8,612.2,404.3,599.4z"/>
	<path class="st4" d="M588.5,1129.8c1.1,0.5,2.1,1.1,3.2,1.6c9.3,3.7,15.8,11.2,23.5,17.2c43.3,33.9,90,61.7,141.3,81.7
		c6.2,2.4,13.4,3.3,17.9,9.1c-20.2,8.4-41.3,13.8-62.5,19c-23.5,5.7-47.4,9.1-71.3,12.4c-6,0.8-12.1,1.6-18,1.6
		c-13.7-0.1-27.3,2.2-41,1.9c-23.7-0.5-47.3-1.8-70.8-4.8c-21.9-29.8-41.4-61.1-57.4-94.4c-16.9-35.2-30.3-71.9-39.6-109.9
		c-3.1-12.8-6.2-25.5-8-38.6c2.8-1,4.4,1.1,6.2,2.6c45.7,37.8,96.4,67.2,151.2,89.7C571.7,1122.4,580.9,1124.4,588.5,1129.8z"/>
	<path class="st12" d="M588.5,1129.8c-23.7-7.3-46.2-17.6-68.5-28.5c-26.7-13-51.8-28.4-76.1-45.2c-13.2-9.2-25.8-19.1-38.1-29.5
		c-0.5-0.5-1-1.1-1.5-1.6c-0.8-13.9-3.7-27.5-5.1-41.4c-1.9-19.4-2.7-38.8-3-58.3c-0.5-36.1,3.2-71.9,9.8-107.3
		c0.2-0.9,0.9-1.8,1.4-2.7c8.5,37.6,19.6,74.3,34.7,109.8c11.3,26.5,24.6,52,39.7,76.4c20,32.3,43.1,62.2,68.8,90.3
		C562.8,1105.1,576.8,1116.3,588.5,1129.8z"/>
	<path class="st4" d="M958.6,1131.5c1.1-0.5,2.1-1.1,3.2-1.6c12.2-7.8,26.3-11,39.3-16.7c46.5-20.5,89.8-45.9,129.6-77.5
		c3.9-3.1,6.9-9.2,13.7-7.4c-2.5,20.2-7.8,39.7-13.7,59.1c-10.4,34.4-23.2,67.9-39.6,99.9c-14.8,28.9-32.2,56.2-51.5,82.4
		c-23.8,2.9-47.7,5.2-71.6,4.6c-37-1-73.9-3.8-110.4-11.7c-24.8-5.3-49.1-11.9-73.2-19.4c-2.5-0.8-5.1-1.3-6.9-3.5
		c1.3-3.9,5-4.4,8.1-5.6c51.5-19.5,98.9-46.3,142.6-79.7C938.3,1146.5,947.1,1137.2,958.6,1131.5z"/>
	<path class="st12" d="M1144.4,1028.2c-11.9,6.8-21.7,16.4-32.8,24.4c-19.8,14.1-40.1,27.3-61.5,38.7c-28.4,15.2-57.4,29-88.3,38.6
		c3.9-6.1,10.3-9.7,15.4-14.7c15.8-15.5,30.5-32,44.8-49c17.1-20.2,32-41.7,46.1-64c19-30,34.7-61.6,47.4-94.6
		c11.8-30.5,21.3-61.7,27.4-93.9c3.9,11.2,4.4,23,6.3,34.6c5.9,35.5,5.6,71.4,4.5,107.2c-0.6,20.9-3.5,41.8-7.1,62.4
		c-0.4,2.3-0.4,4.7-0.5,7.1C1145.5,1026.1,1144.9,1027.1,1144.4,1028.2z"/>
	<path class="st12" d="M958.6,1131.5c-25.2,22.3-52.3,42-81,59.7c-31.7,19.6-65.7,34.4-100.1,48.3c-1,0-2.1,0-3.1,0
		c-67.6-24.7-128.8-60.2-182.7-108.1c17.2,4.8,34.3,10,51.6,14.3c26.5,6.6,53.5,10.6,80.7,12.9c21.8,1.8,43.6,4.1,65.4,2.8
		c20.4-1.2,40.8-2.7,61.1-5.4c29.5-4,58.4-10.2,87-18.1C944.6,1135.9,951.6,1133.6,958.6,1131.5z"/>
</g>
<g>
	<g>
		<path class="st13" d="M2119.4,761.4h-320.8c-7,0-7.6-1.3-7.6-8.9c0-110.7,0-292.3,0-413.8c0-5.7-0.6-6.3,7-6.3h315.7
			c7,0,7.6,0.6,7.6,8.9c0,31,0,56.3,0,83.5c0,7-1.3,8.9-7.6,8.9h-176.5v55.7h172.1c7,0,7.6,1.3,7.6,8.9c0,31,0,70.9,0,96.2
			c0,7-0.6,8.2-7.6,8.2h-172.1v53.1h182.2c7,0,7,0,7,8.2c0,31.6,0,62.6,0,88.6C2126.4,760.1,2125.8,761.4,2119.4,761.4z"/>
		<path class="st13" d="M2663.5,762c-41.8,0-87.3,0-131.6,0c-5.1,0-5.7-1.9-5.7-5.1l-5.7-164.5c0,0-70.2,58.2-96.8,79.1
			c-2.5,2.5-4.4,3.2-5.7,3.2c-1.3,0-2.5-0.6-5.7-3.2c-28.5-22.8-88.6-79.1-88.6-79.1l-4.4,160.1c0,8.2-1.3,8.9-8.2,8.9
			c-44.3,0-74.7,0-115.8,0c-6.3,0-6.3-1.3-6.3-8.2c1.3-125.9,7.6-294.2,14.6-421.4c0-4.4,0.6-5.7,1.9-6.3c1.3-1.3,3.2-0.6,7,1.9
			c70.9,51.9,180.3,144.3,210.1,170.8c31-26.6,144.2-121.5,217-174c3.2-2.5,5.7-3.8,7-3.2c1.3,0.6,1.9,1.9,1.9,6.3
			c10.1,165.8,14.6,273.3,19.6,425.8C2667.9,758.2,2668.5,762,2663.5,762z"/>
		<path class="st13" d="M2971.5,657c-20.2,1.9-77.8,2.5-77.8,2.5s0,46.8,0,96.2c0,5.1-0.6,5.7-6.3,5.7c-44.3,0-93.6,0-134.8,0
			c-6.3,0-6.3,0.6-6.3-5.7c0-163.2,0-266.4,0-417.6c0-6.3,3.2-5.7,6.3-5.7h210.7c100.6,0,165.8,67.1,165.8,164.5
			C3129.1,600.7,3069,646.8,2971.5,657z M2922.8,443.8h-29.1v104.4h30.4c39.9,0,55.7-23.4,55.7-51.9
			C2979.8,465.9,2963.9,443.8,2922.8,443.8z"/>
		<path class="st13" d="M3404.2,776.5c-135.4,0-232.2-100-232.2-229c0-136,105.6-228.4,232.2-228.4c120.8,0,232.2,87.9,232.2,229
			C3636.4,682.3,3527,776.5,3404.2,776.5z M3404.2,467.8c-49.4,0-80.3,32.9-80.3,79.1c0,52.5,32.9,82.9,80.3,82.9
			c45.5,0,80.3-31.6,80.3-82.9C3484.6,498.2,3452.9,467.8,3404.2,467.8z"/>
		<path class="st13" d="M4047.6,770.8c-1.3,3.8-5.1,6.3-8.9,6.3c-3.2,0-5.7-1.3-8.2-5.1c-63.3-104.4-95.5-157.5-95.5-157.5
			s-33.5,56.9-96.2,158.2c-1.9,2.5-5.7,3.8-8.9,3.8c-3.2,0-6.3-1.3-7.6-3.8c-67.1-155.6-105-246.1-178.4-429
			c-4.4-10.1-3.8-11.4,3.8-11.4h144.9c12,0.6,15.2,3.2,17.7,11.4c16.5,54.4,45.6,151.8,45.6,151.8s62.6-127.2,79.1-161.3
			c1.9-3.8,5.7-5.7,8.9-5.7c3.2,0,6.3,1.9,8.2,5.7c16.5,36.1,75.3,163.2,75.3,163.2s31.6-103.1,48.7-158.8c1.9-7,1.9-6.3,7.6-6.3
			h141.1c9.5,0,9.5,0,5.7,8.2C4153.9,520.9,4114,613.9,4047.6,770.8z"/>
		<path class="st13" d="M4606.2,761.4h-320.8c-7,0-7.6-1.3-7.6-8.9c0-110.7,0-292.3,0-413.8c0-5.7-0.6-6.3,7-6.3h315.7
			c7,0,7.6,0.6,7.6,8.9c0,31,0,56.3,0,83.5c0,7-1.3,8.9-7.6,8.9H4424v55.7h172.1c7,0,7.6,1.3,7.6,8.9c0,31,0,70.9,0,96.2
			c0,7-0.6,8.2-7.6,8.2H4424v53.1h182.2c7,0,7,0,7,8.2c0,31.6,0,62.6,0,88.6C4613.1,760.1,4612.5,761.4,4606.2,761.4z"/>
		<path class="st13" d="M5114.2,761.4h-162.6c-5.7,0-8.2-1.3-15.2-12.7c-24-41.1-64.5-109.5-64.5-109.5l-44.3,2.5
			c0,0,0,64.5,0,113.9c0,5.1-0.6,5.7-6.3,5.7c-44.3,0-92.4,0-133.5,0c-6.3,0-6.3,0.6-6.3-5.7c0-163.2,0-266.4,0-417.6
			c0-6.3,3.2-5.7,6.3-5.7h227.1c108.2,0,157.5,67.1,157.5,144.9c0,58.2-22.1,98.7-62,115.1c17.7,25.9,64.5,93,105,151.8
			c5.1,7,7.6,11.4,7.6,13.9C5123,760.7,5119.9,761.4,5114.2,761.4z M4854.1,436.8h-26.6v100.6h27.2c36.7,0,58.2-13.3,58.2-50
			C4913,452,4895.3,436.8,4854.1,436.8z"/>
	</g>
	<g>
		<path class="st13" d="M3581.8,1068.1c2.3-3,1.2-5.8,1.2-8.5c0.1-45,0.2-90.1-0.1-135.1c-0.1-7.5,1.8-10.2,9.7-10
			c21.8,0.6,43.7,0.5,65.5,0c7.4-0.2,9.7,2.3,9.7,9.5c0.1,83.1,0.4,166.2,0.5,249.3c0,26-0.4,52-0.6,78c0,3.1,0.8,7.2-2,8.5
			c-2.8,1.4-5.5-1.9-7.9-3.7c-62.2-47.7-120.5-99.8-178.6-152.3c-2.6-2.3-4.6-5.6-8.6-6.3c-2,2.6-1,5.5-1,8.1
			c-0.1,45-0.3,90.1,0.2,135.1c0.1,8.7-2.5,10.8-10.9,10.6c-21.5-0.6-43.1-0.4-64.6-0.1c-6.8,0.1-9.7-2-9.6-9
			c0.2-10.3-0.3-20.7-0.4-31c-0.5-44.7-1.5-89.5-1.4-134.2c0.2-54.2,1.3-108.5,2-162.7c0-2.9-1.1-6.8,2.5-8.2c2.9-1.1,5,1.8,7.2,3.4
			c45.7,33.7,88.6,70.9,131.1,108.5C3544.4,1034.6,3563,1051.4,3581.8,1068.1z"/>
		<path class="st13" d="M4986,1259.9c-30.2-0.4-56.5-4.2-80.7-17.6c-23.9-13.2-39.1-33.6-48.5-58.7c-1.6-4.3-0.9-7.8,4.4-9.9
			c19.2-7.6,38.2-15.5,57.2-23.5c4-1.7,5.5-0.7,7.5,3.2c14.3,29.7,41.5,43.2,74.5,37.7c3.6-0.6,7.2-0.9,10.7-1.9
			c16.1-4.5,22.6-11.9,24-27.1c1.3-14.7-4.4-24.4-18.5-31.4c-13.5-6.6-28.2-8.5-42.9-10.6c-20.7-2.9-41.4-5.5-60.4-15.3
			c-26.6-13.6-43.5-34.6-49-63.9c-5.3-28.3-2.4-55.6,12.6-80.8c16.3-27.2,42.2-41.2,72-47.5c35.2-7.5,70.5-7.3,104.7,6.1
			c28.5,11.2,48.8,30.8,59.3,59.9c2.1,5.7,1,9.5-5.1,11.8c-17.4,6.7-34.8,13.5-52,20.8c-5.9,2.5-8.7,1.5-11.6-4.4
			c-15-30.8-50.9-44-82.6-30.6c-9.7,4.1-15.5,11.5-16.4,22.4c-1.1,13.3,3.3,23.5,15.1,30.2c12.1,6.8,25.6,9.5,39,12.1
			c21.9,4.1,44.2,6.3,65.1,14.8c35.7,14.5,55.3,41,59.1,79.2c3.1,31.2-2.1,60.2-24,84.2c-19.3,21.1-44.3,31.5-71.8,36.8
			C5012.9,1258.6,4997.9,1260.2,4986,1259.9z"/>
		<path class="st13" d="M2682,1044.7c0,40,0.2,80-0.2,120c-0.1,6.5,1.7,7.8,7.8,7.6c37.2-1,74.4-1.4,111.6-2.3
			c7.4-0.2,10.3,1.4,10.1,9.6c-0.6,21.5-0.4,43.1-0.1,64.6c0.1,5.5-1.6,7.1-7,7.1c-68.3-0.2-136.5-0.1-204.8,0c-5,0-6.7-1.3-6.7-6.6
			c0.2-107.7,0.2-215.4,0-323.1c0-5.9,2.2-6.9,7.4-6.9c24.3,0.2,48.7,0.3,73-0.1c7-0.1,9.1,2.2,9.1,9.1
			C2681.8,964.1,2682,1004.4,2682,1044.7z"/>
		<path class="st13" d="M2160.2,1083c0-52.8,0.1-105.7-0.2-158.5c0-7.6,1.9-10,9.7-9.8c23.2,0.5,46.4,0.5,69.6,0
			c8.3-0.2,10.3,2.8,10.3,10.6c-0.2,79.7-0.1,159.4-0.3,239.1c0,6.7,1.7,8.2,8.2,8c37.2-1,74.4-1.3,111.5-2.4
			c7.4-0.2,9.7,2.1,9.6,9.4c-0.4,21.2-0.3,42.5,0,63.7c0.1,5.9-1.1,8.3-7.8,8.3c-67.7-0.2-135.3-0.2-203,0c-6.6,0-7.8-2.1-7.8-8.2
			C2160.3,1189.8,2160.2,1136.4,2160.2,1083z"/>
		<path class="st13" d="M1902,1083c0,53.1-0.1,106.2,0.1,159.4c0,6.6-1.2,9.2-8.5,9.1c-25.4-0.5-50.9-0.3-76.3-0.1
			c-5.4,0.1-7.2-1.2-7.2-6.9c0.2-107.6,0.2-215.3,0-322.9c0-5.5,1.6-7,7.1-7c25.7,0.3,51.4,0.4,77.2,0c6.6-0.1,7.8,2.2,7.7,8.2
			C1901.9,976.2,1902,1029.6,1902,1083z"/>
		<path class="st13" d="M3034.8,1082.2c0-53.4,0.1-106.8-0.1-160.3c0-5.8,1.3-7.4,7.3-7.3c25.4,0.4,50.9,0.3,76.4,0
			c5.8-0.1,8.4,1,8.4,7.7c-0.2,107.1-0.2,214.2,0,321.4c0,5.7-1.5,7.7-7.5,7.7c-25.7-0.3-51.5-0.3-77.2,0c-5.9,0.1-7.3-1.3-7.3-7.3
			C3034.9,1190.2,3034.8,1136.2,3034.8,1082.2z"/>
		<path class="st13" d="M4505.2,1082.1c0-53.1,0.1-106.2-0.2-159.4c0-6.7,1.7-8.3,8.2-8.2c25.4,0.4,50.9,0.3,76.3,0
			c5.4-0.1,7.1,1.5,7.1,7c-0.1,107.6-0.2,215.3,0,322.9c0,5.8-2,6.8-7.2,6.8c-25.7-0.2-51.4-0.3-77.2,0.1c-6,0.1-7.3-1.7-7.2-7.4
			C4505.3,1190,4505.2,1136.1,4505.2,1082.1z"/>
		<path class="st13" d="M4088.5,908c-99,0-176.5,77.5-176.4,176.5c0.1,98.2,78.2,175.7,176.6,175.3c98.4-0.4,175.8-77.8,175.6-175.5
			C4264,985.4,4186.8,908,4088.5,908z M4142.5,1155.4c-23,21.1-65.8,26.1-93.4,10.6c-36-20.1-45.9-53-43.6-91
			c1.8-30.4,13.4-56.4,41.6-72.1c41.6-23.1,102.5-8.4,119.2,47.1c1.7,5.6,3.3,11.3,4.1,17.1c0.8,5.5,0.6,11.1,0.9,18
			C4170.9,1111.4,4163.6,1136.1,4142.5,1155.4z"/>
	</g>
</g>
</svg>
