<?xml version="1.0" encoding="UTF-8"?>
<svg width="133px" height="49px" viewBox="0 0 133 49" version="1.1" xmlns="http://www.w3.org/2000/svg" xmlns:xlink="http://www.w3.org/1999/xlink">
    <title>Prosci-logo-main-blue</title>
    <g id="Page-1" stroke="none" stroke-width="1" fill="none" fill-rule="evenodd">
        <g id="Desktop-HD-Copy" transform="translate(-135.000000, -208.000000)" fill="#312F82" fill-rule="nonzero">
            <g id="Prosci-logo-main-blue" transform="translate(135.000000, 208.000000)">
                <path d="M18.9471081,6.34161374 L16.628295,15.6195619 C16.8950439,15.634839 17.1253975,15.6420282 17.3208536,15.6420282 C18.1914944,15.6420282 18.8491554,15.4284493 19.2938367,15.000393 C19.738518,14.5721869 20.1298795,13.6829741 20.4674718,12.3315563 L21.2161959,9.33665991 C21.5278773,8.09083333 21.5344673,7.2799527 21.2385124,6.90431757 C20.9419583,6.52958108 20.1782568,6.34161374 18.9471081,6.34161374 Z M11.0250709,0.103793919 L20.5736622,0.103793919 C23.1559291,0.103793919 25.0901205,0.306738739 26.3784831,0.71143018 C27.6651982,1.1168705 28.5624989,1.70248986 29.0693367,2.46798874 C29.5760248,3.23423649 29.8168626,4.16149212 29.7927489,5.24915653 C29.7684854,6.33831869 29.4708829,8.02298536 28.9008401,10.3051036 L28.1070338,13.4801791 C27.5256081,15.80708 26.8618063,17.5038784 26.1144302,18.5696757 C25.3678029,19.6359223 24.2811869,20.4536926 22.8550315,21.024634 C21.4285766,21.5952759 19.6798063,21.8799978 17.6082714,21.8799978 L15.063598,21.8799978 L11.3932173,36.5622692 L1.91277365,36.5622692 L11.0250709,0.103793919 Z" id="Fill-1"></path>
                <path d="M41.3594054,6.67950563 L40.0171239,10.6086971 C42.0408806,7.79517793 44.3280912,6.30431982 46.876509,6.13881869 L44.2481115,16.6554043 C42.5817173,16.6554043 41.3018919,16.8811149 40.4083356,17.3311881 C39.5152286,17.781411 38.878536,18.4080687 38.4973592,19.2113108 C38.1169313,20.0144032 37.5641126,21.8653198 36.8399516,24.7621137 L33.8902872,36.5622692 L24.792518,36.5622692 L32.2616363,6.67950563 L41.3594054,6.67950563" id="Fill-2"></path>
                <path d="M58.1931914,14.9214617 C58.5755664,13.3903142 58.7340282,12.4257646 58.6687264,12.0279628 C58.6026757,11.6300113 58.2998311,11.4309606 57.7595935,11.4309606 C57.2189065,11.4309606 56.8088232,11.6300113 56.5293435,12.0279628 C56.249714,12.4257646 55.9187117,13.3903142 55.5361869,14.9214617 L52.164607,28.4106273 C51.8117376,29.8218052 51.6719977,30.740973 51.7449381,31.1691791 C51.8180282,31.5972354 52.1175777,31.8106644 52.6431374,31.8106644 C53.1836745,31.8106644 53.5885158,31.6159572 53.8593086,31.2250451 C54.1287534,30.8350315 54.4260563,29.9947951 54.7486712,28.7029876 L58.1931914,14.9214617 Z M66.728107,17.1734752 L64.8987579,24.4919201 C64.2273176,27.1796284 63.6000608,29.1502151 63.0162387,30.4029313 C62.4321171,31.6574448 61.5617759,32.8285338 60.4038671,33.9160484 C59.2461081,35.0053604 57.90817,35.8077038 56.3900529,36.3259246 C54.8716363,36.8439955 53.2121318,37.1028063 51.4106408,37.1028063 C49.3987162,37.1028063 47.7504448,36.8812894 46.4647782,36.4385552 C45.1792613,35.9955214 44.2611419,35.3272264 43.7116182,34.4344189 C43.1616453,33.5410124 42.8800687,32.4605372 42.8670383,31.1914955 C42.853259,29.9230529 43.1641914,28.0203142 43.7986374,25.48283 L45.7124595,17.8263435 C46.406366,15.0490698 47.2481002,12.8801813 48.2390101,11.3180304 C49.2300698,9.7576768 50.6240236,8.50361261 52.4222196,7.55763514 C54.2198164,6.61165766 56.334786,6.13881869 58.7666791,6.13881869 C60.808259,6.13881869 62.4857365,6.44301126 63.7973142,7.05049775 C65.1091914,7.65858333 66.0407905,8.45104167 66.592411,9.42667455 C67.1443311,10.4029065 67.436991,11.4083446 67.4708401,12.444786 C67.504839,13.4801791 67.2571115,15.0565586 66.728107,17.1734752 Z" id="Fill-3"></path>
                <path d="M88.5380101,16.2276475 L80.4759336,16.2276475 L80.8816734,14.6058863 C81.2266047,13.2252624 81.3658953,12.3511768 81.3002939,11.9828806 C81.2348423,11.6153333 80.8869155,11.4309606 80.256214,11.4309606 C79.7453322,11.4309606 79.3204212,11.5997568 78.9813311,11.9376487 C78.6411926,12.275241 78.3873243,12.7823784 78.2182286,13.4580124 C77.9895225,14.3735856 77.8851295,15.0454752 77.9056486,15.4735315 C77.9266171,15.9012883 78.1918682,16.3703829 78.7026002,16.8811149 C79.2130327,17.391098 80.3373919,18.1342804 82.0752286,19.1100631 C84.3947905,20.4012714 85.8249899,21.6174426 86.3656768,22.758277 C86.9060642,23.8991115 86.9042669,25.558616 86.3598356,27.7346937 C85.7521993,30.1667365 84.9778637,32.0026757 84.038027,33.240714 C83.097741,34.4795011 81.8050349,35.4329674 80.1596092,36.1009628 C78.5134347,36.7688086 76.6467917,37.1028063 74.5605788,37.1028063 C72.2480563,37.1028063 70.3604448,36.7424482 68.8965462,36.0220315 C67.4327973,35.3013153 66.54658,34.3255327 66.2398412,33.094384 C65.9317545,31.8632354 66.089018,30.0022838 66.7117815,27.509732 L67.0719899,26.0684493 L75.1339167,26.0684493 L74.6610777,27.9596554 C74.2595315,29.5664392 74.1001712,30.6097703 74.1831464,31.090098 C74.2656723,31.570875 74.6068592,31.8106644 75.2074561,31.8106644 C75.8529854,31.8106644 76.3437973,31.6498063 76.6801914,31.3264426 C77.0155372,31.004277 77.3131396,30.3245991 77.5723998,29.2887568 C77.9282646,27.862152 77.9862275,26.9690451 77.7462883,26.6088367 C77.4907725,26.2487782 75.9930248,25.1828311 73.2534944,23.4114448 C70.9562489,21.9096532 69.6675867,20.5476014 69.388107,19.3240912 C69.1084775,18.1005811 69.1791712,16.6479156 69.5991396,14.9663942 C70.1959921,12.5792838 70.9511565,10.8197297 71.8647827,9.68548536 C72.7785586,8.55243919 74.0670709,7.67790428 75.7294212,7.06203041 C77.3920709,6.44690541 79.2215698,6.13881869 81.2185169,6.13881869 C83.2006363,6.13881869 84.8225473,6.39059009 86.0858975,6.89338401 C87.3489482,7.39662725 88.2481959,8.06102815 88.7852883,8.88658671 C89.3217815,9.71214527 89.5808919,10.4773446 89.5623198,11.1832331 C89.5437477,11.8891216 89.3463446,12.9922128 88.9714583,14.4938547 L88.5380101,16.2276475" id="Fill-4"></path>
                <path d="M111.344814,17.9615901 L102.764667,17.9615901 L103.625872,14.5158716 C103.92632,13.3154268 104.031911,12.5008018 103.943694,12.0725957 C103.855626,11.644839 103.547839,11.4309606 103.023178,11.4309606 C102.497618,11.4309606 102.098319,11.6189279 101.823482,11.993964 C101.550443,12.3694493 101.250294,13.2099854 100.923935,14.5158716 L97.4000338,28.6131228 C97.1335845,29.6793694 97.0690315,30.4788671 97.2062252,31.011616 C97.3429696,31.5443649 97.6745709,31.8106644 98.1995315,31.8106644 C98.8154054,31.8106644 99.3009752,31.5334313 99.657589,30.9776171 C100.014352,30.4221025 100.385794,29.3714324 100.772363,27.8248581 L101.661725,24.2668086 L109.768734,24.2668086 C109.156904,26.6537692 108.622957,28.4444764 108.167043,29.6374324 C107.711128,30.8314369 106.902345,32.0549471 105.740991,33.3084122 C104.579488,34.5621768 103.235708,35.5078547 101.710402,36.1460451 C100.184047,36.7840856 98.4150574,37.1028063 96.403732,37.1028063 C93.8367421,37.1028063 91.9124358,36.6638165 90.6306633,35.7858367 C89.3485912,34.9072579 88.5944752,33.6764088 88.3672669,32.0928401 C88.1396092,30.508223 88.3901824,28.2607027 89.1180878,25.3475833 L91.2400968,16.8580496 C91.8745428,14.3211644 92.6076903,12.406893 93.4414865,11.1158345 C94.274384,9.8247759 95.6503649,8.67195946 97.5704775,7.65858333 C99.4904403,6.64565653 101.643902,6.13881869 104.030863,6.13881869 C106.402546,6.13881869 108.303488,6.64236149 109.733687,7.6475 C111.163287,8.65368694 111.965631,9.92242905 112.137872,11.4534268 C112.310113,12.9845743 112.046359,15.1543615 111.344814,17.9615901" id="Fill-5"></path>
                <path d="M127.878452,0.103793919 L126.690738,4.85539865 L117.322625,4.85539865 L118.510489,0.103793919 L127.878452,0.103793919 Z M126.234823,6.67950563 L118.766005,36.5622692 L109.398042,36.5622692 L116.866561,6.67950563 L126.234823,6.67950563 Z" id="Fill-6"></path>
                <path d="M130.467009,1.9765777 L130.827667,1.9765777 C131.008595,1.9765777 131.137401,1.95201464 131.214385,1.90303829 C131.290471,1.85436149 131.328514,1.77438176 131.328514,1.66324887 C131.328514,1.56364865 131.290471,1.48876126 131.215434,1.43903604 C131.139648,1.38886149 131.025519,1.36399887 130.873048,1.36399887 L130.467009,1.36399887 L130.467009,1.9765777 Z M130.025323,3.2573018 L130.025323,1.00364077 L131.061615,1.00364077 C131.318329,1.00364077 131.505098,1.0651982 131.621773,1.18801351 C131.738148,1.31052928 131.79656,1.4624009 131.79656,1.64123198 C131.79656,1.8151205 131.747583,1.95471059 131.64993,2.06000225 C131.551828,2.16529392 131.405048,2.23643694 131.206747,2.27358108 C131.296462,2.3084786 131.368054,2.35610698 131.421074,2.41631644 C131.474244,2.47577703 131.557968,2.60608108 131.672846,2.80543131 L131.928361,3.2573018 L131.381983,3.2573018 L131.198809,2.8945473 C131.089623,2.67767342 130.992868,2.53089414 130.909444,2.45226239 C130.826319,2.37378041 130.717283,2.33438964 130.582935,2.33438964 L130.467009,2.33438964 L130.467009,3.2573018 L130.025323,3.2573018 Z M130.981186,0.412929054 C130.474947,0.412929054 130.064564,0.584870495 129.750936,0.928903153 C129.436409,1.27233671 129.279744,1.67073761 129.279744,2.12395608 C129.279744,2.5935 129.441651,2.99504617 129.766512,3.32949324 C130.091074,3.66409009 130.481986,3.83138851 130.937901,3.83138851 C131.392018,3.83138851 131.781133,3.66409009 132.106144,3.32949324 C132.431155,2.99504617 132.593361,2.5935 132.593361,2.12395608 C132.593361,1.80029279 132.512184,1.50194144 132.34848,1.22950113 C132.185225,0.957210585 131.974941,0.752618243 131.718827,0.616922297 C131.461663,0.481076576 131.216332,0.412929054 130.981186,0.412929054 Z M130.87844,-8.8817842e-16 C131.494015,-8.8817842e-16 132.000553,0.210433558 132.398505,0.632199324 C132.796157,1.05366554 132.994608,1.55076802 132.994608,2.12395608 C132.994608,2.70717905 132.792712,3.20757658 132.388919,3.62335135 C131.984976,4.03882658 131.499407,4.24731306 130.932209,4.24731306 C130.361268,4.24731306 129.875249,4.04002477 129.473403,3.62469932 C129.070809,3.21012275 128.87011,2.709875 128.87011,2.12395608 C128.87011,1.71162613 128.9766,1.33284572 129.18928,0.98851351 C129.40226,0.643731982 129.667811,0.392709459 129.98728,0.235745495 C130.30705,0.0787815311 130.603604,-8.8817842e-16 130.87844,-8.8817842e-16 Z" id="Fill-7"></path>
                <path d="M1.37643018,45.493339 L1.70398761,45.493339 C2.11751577,45.493339 2.43743468,45.4010777 2.66404392,45.2164054 C2.89050338,45.0315833 3.00373311,44.769777 3.00373311,44.4306869 C3.00373311,44.1774178 2.93588514,43.9927455 2.79988964,43.8765203 C2.66404392,43.7604448 2.45555743,43.7021824 2.17443018,43.7021824 L1.75970383,43.7021824 L1.37643018,45.493339 Z M3.84696509,44.4026791 C3.84696509,44.9788626 3.65016104,45.4214471 3.25640315,45.7302827 C2.86264527,46.0394178 2.3138705,46.1938356 1.60992905,46.1938356 L1.22650563,46.1938356 L0.825858108,48.0998694 L0,48.0998694 L1.07673086,43.0054302 L2.24063063,43.0054302 C2.77248086,43.0054302 3.17327815,43.1221047 3.44272297,43.3556036 C3.71231757,43.5889527 3.84696509,43.9380777 3.84696509,44.4026791 Z" id="Fill-8"></path>
                <polyline id="Fill-9" points="7.85463851 48.0998694 5.15060473 48.0998694 6.22733559 43.0054302 8.93136937 43.0054302 8.78144482 43.7195563 6.90341892 43.7195563 6.61060923 45.0961363 8.35982883 45.0961363 8.21709347 45.8035225 6.46083446 45.8035225 6.12623761 47.3924831 8.00441329 47.3924831 7.85463851 48.0998694"></polyline>
                <path d="M12.7579651,43.6395766 C12.4372973,43.6395766 12.146884,43.751009 11.8867252,43.9741734 C11.6265664,44.1970383 11.422723,44.5066228 11.2751948,44.902777 C11.1275169,45.2987815 11.0538277,45.7314809 11.0538277,46.2007252 C11.0538277,46.602571 11.1486351,46.9127545 11.3378007,47.1311261 C11.5272658,47.3494978 11.7914685,47.4586836 12.1307083,47.4586836 C12.4512264,47.4586836 12.7398423,47.3477005 12.9965563,47.1260338 C13.2532703,46.9040676 13.4530698,46.5961306 13.5958052,46.2025225 C13.7388401,45.8087646 13.8102827,45.3726205 13.8102827,44.8939403 C13.8102827,44.499134 13.7184707,44.1913469 13.5349966,43.9705788 C13.3513727,43.7499606 13.0924122,43.6395766 12.7579651,43.6395766 Z M14.6708885,44.8870507 C14.6708885,45.5352759 14.5605045,46.1125079 14.3398863,46.6188964 C14.1191182,47.1254347 13.815375,47.5103559 13.4286565,47.7741092 C13.0419381,48.0377128 12.5929133,48.1695146 12.0818818,48.1695146 C11.4800867,48.1695146 11.0142872,47.9959257 10.6844831,47.648598 C10.3545293,47.3012703 10.189777,46.8209426 10.189777,46.2077646 C10.189777,45.5873975 10.3040552,45.0212489 10.532911,44.5090192 C10.7617669,43.9967894 11.0747962,43.6046791 11.4719989,43.3328378 C11.8693514,43.0611464 12.3198739,42.9253007 12.8241655,42.9253007 C13.407089,42.9253007 13.8607568,43.0982906 14.1848694,43.4445698 C14.508982,43.7905496 14.6708885,44.2714764 14.6708885,44.8870507 Z" id="Fill-10"></path>
                <path d="M17.573973,45.493339 L17.9013806,45.493339 C18.3149088,45.493339 18.6349775,45.4010777 18.8614369,45.2164054 C19.0878964,45.0315833 19.2012759,44.769777 19.2012759,44.4306869 C19.2012759,44.1774178 19.1332782,43.9927455 18.9974324,43.8765203 C18.8614369,43.7604448 18.6529505,43.7021824 18.371973,43.7021824 L17.9572466,43.7021824 L17.573973,45.493339 Z M20.0445079,44.4026791 C20.0445079,44.9788626 19.8477038,45.4214471 19.4537962,45.7302827 C19.0601881,46.0394178 18.5112635,46.1938356 17.8074718,46.1938356 L17.4240484,46.1938356 L17.0234009,48.0998694 L16.1975428,48.0998694 L17.2742736,43.0054302 L18.4380236,43.0054302 C18.9700236,43.0054302 19.3708209,43.1221047 19.6402658,43.3556036 C19.9097106,43.5889527 20.0445079,43.9380777 20.0445079,44.4026791 Z" id="Fill-11"></path>
                <polyline id="Fill-12" points="21.3481475 48.0998694 22.4248784 43.0054302 23.2507365 43.0054302 22.3237804 47.3854437 24.2019561 47.3854437 24.0521813 48.0998694 21.3481475 48.0998694"></polyline>
                <polyline id="Fill-13" points="28.8129223 48.0998694 26.1087387 48.0998694 27.1854696 43.0054302 29.8895034 43.0054302 29.7397286 43.7195563 27.8615529 43.7195563 27.5687432 45.0961363 29.3181126 45.0961363 29.1752275 45.8035225 27.4189685 45.8035225 27.0843716 47.3924831 28.9626971 47.3924831 28.8129223 48.0998694"></polyline>
                <path d="M30.9532038,47.7723119 C30.9532038,47.5795518 31.0077218,47.4255833 31.1169077,47.3105563 C31.2259437,47.1955293 31.3782646,47.1381656 31.5734212,47.1381656 C31.7034257,47.1381656 31.8073694,47.1747106 31.8852523,47.2478007 C31.9629854,47.3210406 32.0019268,47.4285788 32.0019268,47.570116 C32.0019268,47.7513435 31.9468097,47.9017174 31.8364257,48.0213874 C31.7260417,48.1410574 31.581509,48.2008176 31.4025282,48.2008176 C31.2493086,48.2008176 31.1360788,48.1596295 31.062839,48.0771036 C30.9895991,47.9947275 30.9532038,47.8931802 30.9532038,47.7723119" id="Fill-14"></path>
                <path d="M40.3291047,43.6464662 C39.971143,43.6464662 39.6516734,43.7499606 39.3706959,43.9566498 C39.0895687,44.163339 38.8647568,44.4648356 38.6964099,44.8609899 C38.5279133,45.2569944 38.4437399,45.6919403 38.4437399,46.1658277 C38.4437399,46.5839989 38.5395957,46.9040676 38.7313074,47.1260338 C38.9228694,47.3477005 39.2057939,47.4586836 39.5797815,47.4586836 C39.9071892,47.4586836 40.2894144,47.3797523 40.7261577,47.2217399 L40.7261577,47.9360158 C40.3079865,48.0917815 39.8736396,48.1695146 39.4229673,48.1695146 C38.8467838,48.1695146 38.3955124,47.9969741 38.0691532,47.6520428 C37.7427939,47.3071115 37.5796892,46.823339 37.5796892,46.2007252 C37.5796892,45.5968333 37.702205,45.035777 37.9472365,44.5177061 C38.192268,43.9997849 38.5192264,43.6058773 38.9281115,43.3364324 C39.3369966,43.0669876 39.8039944,42.9321903 40.3291047,42.9321903 C40.8330968,42.9321903 41.2849673,43.0389797 41.6844167,43.2527083 L41.3568592,43.9322365 C41.2105293,43.8533052 41.0549133,43.7859065 40.8900113,43.7301903 C40.7249595,43.6744741 40.5380405,43.6464662 40.3291047,43.6464662" id="Fill-15"></path>
                <polyline id="Fill-16" points="46.5687218 48.0998694 45.7394189 48.0998694 46.2272354 45.8035225 44.2550011 45.8035225 43.7704797 48.0998694 42.9447714 48.0998694 44.0215023 43.0054302 44.8473604 43.0054302 44.4047759 45.0890969 46.3771599 45.0890969 46.8195946 43.0054302 47.6453029 43.0054302 46.5687218 48.0998694"></polyline>
                <path d="M51.9282624,45.9601869 C51.8352523,44.9938401 51.7823818,44.4091194 51.7696509,44.205875 C51.7567703,44.0024809 51.7504797,43.8405743 51.7504797,43.7195563 C51.6227218,44.0426205 51.45767,44.3992342 51.2557736,44.7895473 L50.656375,45.9601869 L51.9282624,45.9601869 Z M51.9839786,46.6850969 L50.29392,46.6850969 L49.5657151,48.0998694 L48.6805462,48.0998694 L51.4089932,42.9983908 L52.3638074,42.9983908 L52.9422376,48.0998694 L52.1268637,48.0998694 L51.9839786,46.6850969 Z" id="Fill-17"></path>
                <path d="M58.956893,48.0998694 L58.0509054,48.0998694 L56.6222038,44.0472635 L56.6012354,44.0472635 L56.5663378,44.287652 C56.5107714,44.6339313 56.4692838,44.8806104 56.4427736,45.0281385 C56.415964,45.1756667 56.2028345,46.199527 55.8032354,48.0998694 L55.0401329,48.0998694 L56.1170135,43.0054302 L57.0507095,43.0054302 L58.4410687,47.0090597 L58.465482,47.0090597 C58.479411,46.8836982 58.515357,46.6600845 58.5734696,46.3383683 C58.6315822,46.016652 58.6780124,45.7803074 58.7129099,45.6291847 L59.2703716,43.0054302 L60.0334741,43.0054302 L58.956893,48.0998694" id="Fill-18"></path>
                <path d="M63.9328604,45.3365248 L65.7169775,45.3365248 L65.17,47.9011183 C64.9098412,47.9941284 64.655973,48.0621261 64.408545,48.1051115 C64.1611171,48.1480969 63.8841836,48.1695146 63.5774448,48.1695146 C62.9711565,48.1695146 62.500714,47.9999696 62.1661171,47.6608795 C61.83167,47.3216396 61.6645214,46.841911 61.6645214,46.2216937 C61.6645214,45.608366 61.7835923,45.0474595 62.0217342,44.5385248 C62.2597264,44.0298896 62.5967196,43.6349336 63.0322646,43.3538063 C63.4678097,43.0726791 63.9631149,42.9321903 64.51833,42.9321903 C64.7760923,42.9321903 65.02367,42.9560045 65.2606137,43.0036329 C65.4975574,43.0512613 65.7356993,43.1319899 65.9748896,43.2458187 L65.6612613,43.953205 C65.2570191,43.7534054 64.8691025,43.6535056 64.4975113,43.6535056 C64.1304133,43.6535056 63.7970146,43.7586475 63.4973153,43.9687815 C63.197616,44.1792151 62.9612714,44.4787646 62.7882815,44.8678795 C62.6151419,45.2569944 62.5285721,45.6896937 62.5285721,46.1658277 C62.5285721,46.5908885 62.6320664,46.9127545 62.8387556,47.1311261 C63.0455946,47.3494978 63.3393029,47.4586836 63.7201802,47.4586836 C63.9735991,47.4586836 64.2232736,47.4203412 64.4695034,47.3438063 L64.748384,46.0509505 L63.7830856,46.0509505 L63.9328604,45.3365248" id="Fill-19"></path>
                <polyline id="Fill-20" points="70.2121678 48.0998694 67.508134 48.0998694 68.5848649 43.0054302 71.2890484 43.0054302 71.1391239 43.7195563 69.2609482 43.7195563 68.9682883 45.0961363 70.7175079 45.0961363 70.5746227 45.8035225 68.8183637 45.8035225 68.4837669 47.3924831 70.3619426 47.3924831 70.2121678 48.0998694"></polyline>
                <path d="M72.5808559,47.7723119 C72.5808559,47.5795518 72.6353739,47.4255833 72.7445597,47.3105563 C72.8537455,47.1955293 73.0060664,47.1381656 73.2010732,47.1381656 C73.3310777,47.1381656 73.4351712,47.1747106 73.5129043,47.2478007 C73.5907872,47.3210406 73.6297286,47.4285788 73.6297286,47.570116 C73.6297286,47.7513435 73.5744617,47.9017174 73.4642275,48.0213874 C73.3538435,48.1410574 73.209161,48.2008176 73.0304797,48.2008176 C72.8769606,48.2008176 72.7637309,48.1596295 72.6906408,48.0771036 C72.6174009,47.9947275 72.5808559,47.8931802 72.5808559,47.7723119" id="Fill-21"></path>
                <path d="M80.38517,45.3748671 L80.8136757,45.3748671 C81.2086318,45.3748671 81.5036881,45.2876982 81.6988446,45.1135101 C81.8938514,44.9393221 81.9916543,44.699982 81.9916543,44.3956396 C81.9916543,44.1518063 81.9230574,43.9764201 81.7860135,43.8694809 C81.6489696,43.7628412 81.4362894,43.7092219 81.1482725,43.7092219 L80.7335462,43.7092219 L80.38517,45.3748671 Z M80.2352455,46.0648795 L79.8067399,48.0998694 L78.9808818,48.0998694 L80.0576126,43.0054302 L81.2354414,43.0054302 C81.7533626,43.0054302 82.1505653,43.1150653 82.4271993,43.3346351 C82.7035338,43.554205 82.8416261,43.8916475 82.8416261,44.3469628 C82.8416261,44.7302365 82.741277,45.05375 82.5404291,45.3173536 C82.3394313,45.581107 82.0403311,45.773268 81.6429786,45.8941363 L82.5107736,48.0998694 L81.604786,48.0998694 L80.8834707,46.0648795 L80.2352455,46.0648795 Z" id="Fill-22"></path>
                <polyline id="Fill-23" points="87.1364178 48.0998694 84.432384 48.0998694 85.5092646 43.0054302 88.2132984 43.0054302 88.0635236 43.7195563 86.1851982 43.7195563 85.8925383 45.0961363 87.6417579 45.0961363 87.4988727 45.8035225 85.7426137 45.8035225 85.4081667 47.3924831 87.2863423 47.3924831 87.1364178 48.0998694"></polyline>
                <path d="M92.4851745,46.6085619 C92.4851745,47.0962286 92.317277,47.4784538 91.9817815,47.7549381 C91.6459865,48.0314223 91.1830327,48.1695146 90.5930698,48.1695146 C90.1051036,48.1695146 89.7010113,48.0823457 89.3804932,47.9081577 L89.3804932,47.1276813 C89.782339,47.3529426 90.1888277,47.4655732 90.5999595,47.4655732 C90.9182309,47.4655732 91.1692534,47.3977252 91.3527275,47.2618795 C91.5362016,47.1260338 91.6278637,46.9371678 91.6278637,46.6955811 C91.6278637,46.5351723 91.5803851,46.393036 91.4851284,46.268723 C91.3898716,46.1444099 91.1900721,45.9857984 90.8857297,45.7930383 C90.6418964,45.6374223 90.4617173,45.4957354 90.3456419,45.3678277 C90.2295664,45.2402196 90.1406002,45.1001802 90.0791926,44.9481588 C90.0174854,44.7958378 89.9866318,44.6280901 89.9866318,44.4444662 C89.9866318,44.1471633 90.0582241,43.8834099 90.2009595,43.6535056 C90.3438446,43.4234516 90.5460405,43.2458187 90.8073975,43.1203074 C91.0687545,42.994946 91.3632117,42.9321903 91.6906194,42.9321903 C92.1669032,42.9321903 92.6094876,43.0389797 93.0183727,43.2527083 L92.7186734,43.9184572 C92.3446858,43.7372297 92.0020011,43.6464662 91.6906194,43.6464662 C91.4375,43.6464662 91.2342556,43.714464 91.0808863,43.8503097 C90.9276667,43.9863052 90.8508322,44.163339 90.8508322,44.3817106 C90.8508322,44.4910462 90.8683559,44.5867523 90.9032534,44.6692782 C90.9380011,44.7518041 90.9920698,44.8284887 91.0653097,44.8991824 C91.1383998,44.9701757 91.2946149,45.081009 91.533955,45.231982 C91.8940135,45.457393 92.1424899,45.6751656 92.2796836,45.8852996 C92.4165777,46.0957331 92.4851745,46.336571 92.4851745,46.6085619" id="Fill-24"></path>
                <path d="M99.0676261,43.0054302 L98.3638345,46.336571 C98.2336802,46.9569381 97.9920935,47.4174955 97.6389245,47.718393 C97.2859054,48.0191408 96.8178592,48.1695146 96.2346363,48.1695146 C95.7304944,48.1695146 95.3409302,48.0463998 95.0656441,47.8003198 C94.7903581,47.5539403 94.6527151,47.199723 94.6527151,46.7373683 C94.6527151,46.5446081 94.6757804,46.3470552 94.7225101,46.145009 L95.3949989,43.0054302 L96.220857,43.0054302 L95.5516633,46.1589381 C95.5029865,46.3633806 95.4784234,46.5468547 95.4784234,46.7093604 C95.4784234,46.9463041 95.5476194,47.1306768 95.6858615,47.2618795 C95.8241036,47.3930822 96.0337883,47.4586836 96.3147658,47.4586836 C96.6516092,47.4586836 96.9188074,47.3652241 97.1163604,47.1781554 C97.3136137,46.9912365 97.4576971,46.6874933 97.5484606,46.2669257 L98.2419178,43.0054302 L99.0676261,43.0054302" id="Fill-25"></path>
                <polyline id="Fill-26" points="100.27541 48.0998694 101.352141 43.0054302 102.177999 43.0054302 101.251043 47.3854437 103.129368 47.3854437 102.979444 48.0998694 100.27541 48.0998694"></polyline>
                <polyline id="Fill-27" points="106.44628 48.0998694 105.620422 48.0998694 106.540339 43.7195563 105.219775 43.7195563 105.376439 43.0054302 108.85406 43.0054302 108.704285 43.7195563 107.376681 43.7195563 106.44628 48.0998694"></polyline>
                <path d="M112.765428,46.6085619 C112.765428,47.0962286 112.59753,47.4784538 112.262035,47.7549381 C111.92624,48.0314223 111.463436,48.1695146 110.873323,48.1695146 C110.385507,48.1695146 109.981414,48.0823457 109.660747,47.9081577 L109.660747,47.1276813 C110.062592,47.3529426 110.469081,47.4655732 110.880213,47.4655732 C111.198484,47.4655732 111.449507,47.3977252 111.632981,47.2618795 C111.816455,47.1260338 111.908267,46.9371678 111.908267,46.6955811 C111.908267,46.5351723 111.860639,46.393036 111.765532,46.268723 C111.670125,46.1444099 111.470325,45.9857984 111.166133,45.7930383 C110.92215,45.6374223 110.74212,45.4957354 110.625895,45.3678277 C110.50982,45.2402196 110.420854,45.1001802 110.359446,44.9481588 C110.297889,44.7958378 110.267035,44.6280901 110.267035,44.4444662 C110.267035,44.1471633 110.338477,43.8834099 110.481213,43.6535056 C110.624248,43.4234516 110.826294,43.2458187 111.087651,43.1203074 C111.349008,42.994946 111.643465,42.9321903 111.971023,42.9321903 C112.447157,42.9321903 112.889741,43.0389797 113.298626,43.2527083 L112.998927,43.9184572 C112.624939,43.7372297 112.282255,43.6464662 111.971023,43.6464662 C111.717753,43.6464662 111.514509,43.714464 111.36114,43.8503097 C111.20792,43.9863052 111.131235,44.163339 111.131235,44.3817106 C111.131235,44.4910462 111.148609,44.5867523 111.183507,44.6692782 C111.218255,44.7518041 111.272473,44.8284887 111.345563,44.8991824 C111.418653,44.9701757 111.574868,45.081009 111.814208,45.231982 C112.174267,45.457393 112.422743,45.6751656 112.559937,45.8852996 C112.696981,46.0957331 112.765428,46.336571 112.765428,46.6085619" id="Fill-28"></path>
                <path d="M114.465521,47.7723119 C114.465521,47.5795518 114.51989,47.4255833 114.629225,47.3105563 C114.738411,47.1955293 114.890582,47.1381656 115.085739,47.1381656 C115.215893,47.1381656 115.319687,47.1747106 115.39772,47.2478007 C115.475303,47.3210406 115.514394,47.4285788 115.514394,47.570116 C115.514394,47.7513435 115.459277,47.9017174 115.348743,48.0213874 C115.238509,48.1410574 115.093827,48.2008176 114.914995,48.2008176 C114.761776,48.2008176 114.648396,48.1596295 114.575157,48.0771036 C114.502066,47.9947275 114.465521,47.8931802 114.465521,47.7723119" id="Fill-29"></path>
                <path d="M117.318282,44.6328829 L116.847989,43.3250496 L116.829267,43.3250496 L116.843346,43.626696 L116.843346,44.6328829 L116.565064,44.6328829 L116.565064,42.9458198 L117.002407,42.9458198 L117.461017,44.2539527 L117.935953,42.9458198 L118.35697,42.9458198 L118.35697,44.6328829 L118.060116,44.6328829 L118.060116,43.6502106 L118.074195,43.3296926 L118.055323,43.3296926 L117.561666,44.6328829 L117.318282,44.6328829 Z M115.914443,44.6328829 L115.626725,44.6328829 L115.626725,43.1939966 L115.137711,43.1939966 L115.137711,42.9458198 L116.40825,42.9458198 L116.40825,43.1939966 L115.914443,43.1939966 L115.914443,44.6328829 Z" id="Fill-30"></path>
            </g>
        </g>
    </g>
</svg>