<svg id="Layer_1" data-name="Layer 1" xmlns="http://www.w3.org/2000/svg" viewBox="0 0 1000 262.08"><defs><style>.cls-1{fill:#12284c;}.cls-2{fill:#ff8300;}</style></defs><path class="cls-1" d="M76.23,105.89,0,261.52H24.47s19-38.87,20-40.86h81.63c1,2,20.57,40.86,20.57,40.86h24.75L94.34,105.89Zm39.55,93.26H55.06l30.23-61.23C88.21,143.76,113.43,194.41,115.78,199.15Z"/><path class="cls-1" d="M261.58,197.35c-3-4.5-60.41-91.46-60.41-91.46H180.81V261.52h22.35V147.19l58.42,87.09L320,147.19V261.52h22.35V105.89H322.28Z"/><path class="cls-1" d="M453.89,105.89H365V261.52h22.63V195h68.84c28.09,0,47-18.54,47-46.13C503.39,122.37,484.42,105.89,453.89,105.89Zm-1.12,67.62H387.59V127.1h66c17,0,26.3,8.36,26.3,23.49S470.78,173.51,452.77,173.51Z"/><path class="cls-1" d="M541.88,105.89H519.23V261.52H641.05V240.29H541.88Z"/><path class="cls-1" d="M654.35,262.08h22.91V105H654.35Z"/><path class="cls-1" d="M701.83,261.52h22.64V189.1h60.85V167.87H724.47V127.1H825.06V105.89H701.83Z"/><path class="cls-1" d="M971,105.89,917.72,165l-53.55-59.09H835.44l70.82,78.4v77.23h22.63V184.57L1000,105.89Z"/><path class="cls-2" d="M203.81,74l12.27,18.57a210,210,0,0,1,91.2,0L319.59,74A231,231,0,0,0,203.81,74Z"/><path class="cls-2" d="M223.92,104.4,236.85,124a174.49,174.49,0,0,1,49.58,0l13-19.58a196.46,196.46,0,0,0-75.49,0Z"/><path class="cls-2" d="M245,136.28l16.6,25.14,16.68-25.12a161.12,161.12,0,0,0-16.68-.86A165.62,165.62,0,0,0,245,136.28Z"/><path class="cls-2" d="M184.71,45l11.75,17.79A243.28,243.28,0,0,1,327,62.9l11.79-17.77a263.81,263.81,0,0,0-154-.09Z"/><path class="cls-2" d="M177.77,34.52a275.84,275.84,0,0,1,168,.11L358,16.09A297.18,297.18,0,0,0,165.5,16Z"/><path class="cls-1" d="M962.9,232.05a14.94,14.94,0,1,1-15.43,14.89,15.06,15.06,0,0,1,15.34-14.89Zm-.18,3c-6.53,0-11.44,5.36-11.44,11.9a11.54,11.54,0,0,0,11.62,11.89c6.54.09,11.35-5.27,11.35-11.89S969.44,235,962.81,235Zm-2.27,19.62H957v-14.8a29.1,29.1,0,0,1,5.72-.55c2.81,0,4.09.45,5.18,1.18a4.08,4.08,0,0,1,1.45,3.18c0,1.73-1.27,3-3.09,3.54v.19c1.45.45,2.27,1.63,2.73,3.63.45,2.26.72,3.17,1.09,3.63h-3.73a12,12,0,0,1-1.18-3.55c-.27-1.63-1.18-2.35-3.08-2.35h-1.64Zm.09-8.36h1.64c1.9,0,3.44-.63,3.44-2.18,0-1.35-1-2.26-3.17-2.26a9.22,9.22,0,0,0-1.91.17Z"/></svg>