<?xml version="1.0" encoding="UTF-8"?>
<svg width="150px" height="16px" viewBox="0 0 150 16" version="1.1" xmlns="http://www.w3.org/2000/svg" xmlns:xlink="http://www.w3.org/1999/xlink">
    <title>Logos - CDK/01 Horizontal/01 Light Background</title>
    <g id="Logos---CDK/01-Horizontal/01-Light-Background" stroke="none" stroke-width="1" fill="none" fill-rule="evenodd">
        <g id="CDK_Logo_Horiz_Reg_4C">
            <path d="M64.725,2.77603448 C63.9589655,2.24586207 63.0522414,1.97482759 62.0022414,1.97482759 C61.1001724,1.97482759 60.3398276,2.14241379 59.7,2.48172414 C59.0694828,2.81637931 58.5439655,3.27206897 58.1275862,3.83689655 C57.7143103,4.40275862 57.4091379,5.05137931 57.2131034,5.77862069 C57.0165517,6.50689655 56.9182759,7.26258621 56.9182759,8.05034483 C56.9182759,8.89965517 57.0165517,9.71275862 57.2131034,10.472069 C57.4091379,11.2375862 57.7143103,11.9032759 58.1275862,12.4686207 C58.5439655,13.0381034 59.0694828,13.4912069 59.7134483,13.8263793 C60.357931,14.16 61.1239655,14.3306897 62.0234483,14.3306897 C62.6808621,14.3306897 63.2668966,14.2205172 63.7732759,14.0058621 C64.287931,13.787069 64.7306897,13.4860345 65.102069,13.1017241 C65.4703448,12.7148276 65.7589655,12.2560345 65.9741379,11.7258621 C66.1836207,11.19 66.3082759,10.6168966 66.3506897,10.002931 L68.3446552,10.002931 C68.1512069,11.8924138 67.4989655,13.3644828 66.3931034,14.4124138 C65.2846552,15.4618966 63.7732759,15.9894828 61.8558621,15.9894828 C60.6946552,15.9894828 59.6787931,15.7887931 58.8098276,15.39 C57.9393103,14.987069 57.2234483,14.4439655 56.6451724,13.737931 C56.07,13.0406897 55.6406897,12.2136207 55.3541379,11.2639655 C55.0675862,10.307069 54.9217241,9.28862069 54.9217241,8.1962069 C54.9217241,7.10172414 55.0758621,6.07758621 55.3862069,5.11603448 C55.6934483,4.15758621 56.1439655,3.32534483 56.7408621,2.60896552 C57.3346552,1.89310345 58.0774138,1.33086207 58.9655172,0.917068966 C59.8567241,0.506896552 60.8746552,0.29637931 62.0234483,0.29637931 C62.8081034,0.29637931 63.5508621,0.403448276 64.2475862,0.612413793 C64.9510345,0.824482759 65.5737931,1.13172414 66.1174138,1.53775862 C66.6636207,1.94482759 67.1198276,2.44810345 67.4855172,3.06 C67.8486207,3.66775862 68.085,4.37224138 68.1987931,5.16827586 L66.2048276,5.16827586 C65.9767241,4.10689655 65.4863793,3.3062069 64.725,2.77603448" id="Fill-1" fill="#1A1919"></path>
            <path d="M74.8758621,0.654827586 C77.187931,0.654827586 78.9651724,1.24034483 80.2117241,2.41551724 C81.4572414,3.59534483 82.0794828,5.38810345 82.0794828,7.7937931 C82.0794828,9.05637931 81.9403448,10.1715517 81.6615517,11.145 C81.3796552,12.1231034 80.9462069,12.9403448 80.3560345,13.6055172 C79.7684483,14.2660345 79.0184483,14.7755172 78.1075862,15.1256897 C77.1982759,15.4789655 76.1224138,15.6537931 74.8758621,15.6537931 L69.7313793,15.6537931 L69.7313793,0.654827586 L74.8758621,0.654827586 Z M75.0455172,13.9691379 C75.2684483,13.9691379 75.5477586,13.9582759 75.882931,13.9184483 C76.217069,13.8848276 76.5781034,13.7994828 76.9546552,13.6665517 C77.3286207,13.532069 77.7051724,13.3432759 78.0760345,13.0893103 C78.4531034,12.8374138 78.7794828,12.4944828 79.0763793,12.0574138 C79.3732759,11.625 79.6117241,11.0813793 79.8025862,10.4343103 C79.9882759,9.78155172 80.0844828,8.99431034 80.0844828,8.06896552 C80.0844828,7.17103448 79.9924138,6.37137931 79.8206897,5.66224138 C79.6458621,4.95827586 79.3572414,4.3562069 78.9589655,3.86068966 C78.5591379,3.36206897 78.045,2.98293103 77.4155172,2.72327586 C76.785,2.46568966 76.0081034,2.33844828 75.087931,2.33844828 L71.7258621,2.33844828 L71.7258621,13.9691379 L75.0455172,13.9691379 L75.0455172,13.9691379 Z" id="Fill-2" fill="#1A1919"></path>
            <polyline id="Fill-3" fill="#1A1919" points="85.5227586 0.654827586 85.5227586 8.13517241 93.1277586 0.654827586 95.712931 0.654827586 89.3906897 6.70344828 95.9653448 15.6537931 93.4437931 15.6537931 88.0231034 8.06896552 85.5227586 10.3996552 85.5227586 15.6537931 83.5251724 15.6537931 83.5251724 0.654827586 85.5227586 0.654827586"></polyline>
            <path d="M95.1863793,8.22310345 C95.1863793,7.16275862 95.3472414,6.15103448 95.6653448,5.19362069 C95.9746552,4.23775862 96.4360345,3.39465517 97.0381034,2.66534483 C97.6375862,1.94172414 98.3715517,1.36396552 99.2477586,0.936206897 C100.122414,0.512586207 101.124828,0.297413793 102.257069,0.297413793 C103.026207,0.297413793 103.757586,0.407586207 104.460517,0.632068966 C105.15569,0.862241379 105.783103,1.18396552 106.335517,1.62103448 C106.88431,2.05137931 107.353966,2.57534483 107.727414,3.19344828 C108.109655,3.80793103 108.357931,4.50568966 108.486207,5.2887931 L107.600172,5.2887931 C107.254655,3.975 106.623621,2.94672414 105.717414,2.20706897 C104.808103,1.46741379 103.65931,1.09551724 102.278276,1.09551724 C101.272241,1.09551724 100.382069,1.29206897 99.6134483,1.68206897 C98.8437931,2.07413793 98.205,2.60017241 97.6846552,3.25551724 C97.1674138,3.90931034 96.7758621,4.6712069 96.507931,5.53189655 C96.242069,6.38896552 96.1158621,7.29051724 96.1158621,8.22310345 C96.1158621,9.17793103 96.242069,10.0743103 96.4996552,10.9205172 C96.7593103,11.7662069 97.1441379,12.5032759 97.6525862,13.1322414 C98.1646552,13.7601724 98.8039655,14.2613793 99.57,14.6296552 C100.341724,15.0041379 101.24069,15.1877586 102.278276,15.1877586 C103.171552,15.1877586 103.979483,15.0382759 104.688621,14.7465517 C105.405,14.4522414 106.006034,14.04 106.505172,13.5108621 C107.000172,12.9755172 107.372069,12.3377586 107.623448,11.5882759 C107.875862,10.8418966 107.982414,10.0065517 107.941552,9.08793103 L102.423621,9.08793103 L102.423621,8.28724138 L108.739655,8.28724138 L108.739655,15.6268966 L107.941552,15.6268966 L107.941552,12.4422414 L107.897586,12.4422414 C107.710345,12.9837931 107.441897,13.4777586 107.079828,13.9194828 C106.714138,14.357069 106.287931,14.7284483 105.788793,15.0305172 C105.292759,15.3305172 104.741379,15.5663793 104.134138,15.7303448 C103.524828,15.8984483 102.893793,15.9822414 102.232759,15.9822414 C101.103621,15.9822414 100.101207,15.7810345 99.2255172,15.3760345 C98.3503448,14.972069 97.6112069,14.4206897 97.0137931,13.7203448 C96.4101724,13.0205172 95.9591379,12.1986207 95.6482759,11.2546552 C95.342069,10.3127586 95.1863793,9.30258621 95.1863793,8.22310345" id="Fill-4" fill="#1A1919"></path>
            <polygon id="Fill-5" fill="#1A1919" points="110.492586 15.6268966 111.288621 15.6268966 111.288621 0.653275862 110.492586 0.653275862"></polygon>
            <path d="M112.471552,10.2362069 C112.471552,9.46758621 112.579655,8.74655172 112.794828,8.06793103 C113.014138,7.38827586 113.333276,6.79189655 113.751724,6.27775862 C114.17069,5.75586207 114.69,5.35034483 115.303448,5.04672414 C115.914828,4.74775862 116.623966,4.59982759 117.422069,4.59982759 C118.222759,4.59982759 118.923103,4.74775862 119.537069,5.04672414 C120.152586,5.35034483 120.672931,5.75586207 121.091897,6.27775862 C121.513448,6.79189655 121.823276,7.38827586 122.043621,8.06793103 C122.262931,8.74655172 122.372069,9.46758621 122.372069,10.2362069 C122.372069,11.007931 122.262931,11.732069 122.043621,12.4158621 C121.823276,13.1027586 121.513448,13.7017241 121.091897,14.2112069 C120.672931,14.7212069 120.152586,15.1256897 119.537069,15.4256897 C118.923103,15.7262069 118.222759,15.8798276 117.422069,15.8798276 C116.623966,15.8798276 115.914828,15.7262069 115.303448,15.4256897 C114.69,15.1256897 114.17069,14.7212069 113.751724,14.2112069 C113.333276,13.7017241 113.014138,13.1027586 112.794828,12.4158621 C112.579655,11.732069 112.471552,11.007931 112.471552,10.2362069 M113.268621,10.2362069 C113.268621,10.8812069 113.356552,11.4987931 113.542759,12.0951724 C113.723276,12.6889655 113.987069,13.2139655 114.337759,13.6753448 C114.69,14.1367241 115.120345,14.5055172 115.642759,14.7786207 C116.156897,15.0517241 116.749138,15.1877586 117.422069,15.1877586 C118.092931,15.1877586 118.686724,15.0517241 119.203966,14.7786207 C119.721207,14.5055172 120.152586,14.1367241 120.507931,13.6753448 C120.852414,13.2139655 121.118276,12.6889655 121.301379,12.0951724 C121.481897,11.4987931 121.571897,10.8812069 121.571897,10.2362069 C121.571897,9.59482759 121.481897,8.9787931 121.301379,8.38241379 C121.118276,7.7912069 120.852414,7.25844828 120.507931,6.79706897 C120.152586,6.33568966 119.721207,5.96689655 119.203966,5.69637931 C118.686724,5.42327586 118.092931,5.2887931 117.422069,5.2887931 C116.749138,5.2887931 116.156897,5.42327586 115.642759,5.69637931 C115.120345,5.96689655 114.69,6.33568966 114.337759,6.79706897 C113.987069,7.25844828 113.723276,7.7912069 113.542759,8.38241379 C113.356552,8.9787931 113.268621,9.59482759 113.268621,10.2362069" id="Fill-6" fill="#1A1919"></path>
            <path d="M123.528621,0.653275862 L124.305517,0.653275862 L124.305517,7.13172414 L124.345862,7.13172414 C124.501552,6.71431034 124.719828,6.34655172 125.00069,6.0362069 C125.278448,5.71603448 125.599655,5.45534483 125.968448,5.23551724 C126.331034,5.02034483 126.722069,4.85896552 127.142586,4.755 C127.566724,4.64948276 127.996034,4.59982759 128.447586,4.59982759 C129.24569,4.59982759 129.934655,4.73896552 130.515517,5.01465517 C131.099483,5.29862069 131.586207,5.68034483 131.97931,6.16655172 C132.372414,6.65637931 132.661034,7.22948276 132.852414,7.87862069 C133.040172,8.5262069 133.133276,9.2337931 133.133276,9.98534483 C133.133276,11.2701724 132.960517,12.3015517 132.607759,13.0784483 C132.258103,13.8584483 131.837069,14.4455172 131.34569,14.8660345 C130.857931,15.2751724 130.343793,15.5477586 129.810517,15.6775862 C129.279828,15.8151724 128.826207,15.8798276 128.447586,15.8798276 C127.731207,15.8798276 127.127069,15.7660345 126.627931,15.542069 C126.12931,15.3201724 125.722241,15.0594828 125.398966,14.7574138 C125.074138,14.4574138 124.834138,14.1584483 124.661379,13.8641379 C124.496379,13.572931 124.388276,13.3546552 124.345862,13.2139655 L124.305517,13.2139655 L124.305517,15.6268966 L123.528621,15.6268966 L123.528621,0.653275862 Z M128.447586,15.1877586 C129.160862,15.1877586 129.766034,15.0356897 130.258966,14.7258621 C130.746724,14.4206897 131.145,14.0156897 131.453276,13.5191379 C131.764138,13.0236207 131.987586,12.4634483 132.12569,11.8406897 C132.266379,11.2225862 132.337759,10.5998276 132.337759,9.98534483 C132.337759,9.38275862 132.258103,8.805 132.096724,8.24741379 C131.931724,7.68258621 131.693276,7.18396552 131.359138,6.74741379 C131.027586,6.30568966 130.624655,5.95189655 130.139483,5.6912069 C129.656897,5.41810345 129.095172,5.2887931 128.447586,5.2887931 C127.74569,5.2887931 127.135345,5.40465517 126.620172,5.64413793 C126.09569,5.88206897 125.671552,6.21103448 125.34,6.63051724 C125.00069,7.05413793 124.74931,7.54758621 124.578621,8.12017241 C124.408448,8.69275862 124.326724,9.31655172 124.326724,9.98534483 C124.326724,10.6427586 124.40069,11.2898276 124.56,11.912069 C124.713621,12.5415517 124.953103,13.1027586 125.283621,13.5832759 C125.613103,14.0648276 126.037241,14.4522414 126.554483,14.7465517 C127.071724,15.0382759 127.703276,15.1877586 128.447586,15.1877586 L128.447586,15.1877586 Z" id="Fill-7" fill="#1A1919"></path>
            <path d="M141.625862,13.4896552 L141.578793,13.4896552 C141.456207,13.8077586 141.279828,14.1160345 141.035172,14.3994828 C140.796724,14.6881034 140.507586,14.9431034 140.166207,15.1681034 C139.823793,15.3910345 139.435862,15.5663793 139.004483,15.6915517 C138.566897,15.8182759 138.094138,15.8798276 137.574828,15.8798276 C136.429655,15.8798276 135.541552,15.63 134.917241,15.1339655 C134.286724,14.6384483 133.968621,13.8739655 133.968621,12.8384483 C133.968621,12.2089655 134.093793,11.6943103 134.348276,11.2996552 C134.599138,10.8998276 134.917241,10.5837931 135.302069,10.3505172 C135.69,10.1244828 136.113103,9.95534483 136.580172,9.86172414 C137.048793,9.76448276 137.501379,9.68948276 137.935862,9.65017241 L139.171034,9.54258621 C139.744138,9.50431034 140.194655,9.43758621 140.523103,9.345 C140.852069,9.25551724 141.105,9.12827586 141.271552,8.96844828 C141.438103,8.80965517 141.539483,8.60275862 141.578793,8.34827586 C141.625862,8.09637931 141.647586,7.78344828 141.647586,7.4037931 C141.647586,7.11310345 141.588621,6.84 141.477414,6.58810345 C141.366724,6.33568966 141.191897,6.11068966 140.953448,5.9187931 C140.711897,5.72017241 140.406724,5.56758621 140.032759,5.45534483 C139.652069,5.34362069 139.19431,5.2887931 138.648103,5.2887931 C137.681379,5.2887931 136.901379,5.53034483 136.310172,6.00103448 C135.716379,6.47948276 135.384828,7.19741379 135.331552,8.16465517 L134.539138,8.16465517 C134.591897,6.97448276 134.973621,6.0837931 135.679138,5.48482759 C136.388793,4.89310345 137.386034,4.59982759 138.688448,4.59982759 C139.990345,4.59982759 140.936897,4.85327586 141.531207,5.36224138 C142.122931,5.87172414 142.425,6.54206897 142.425,7.36706897 L142.425,13.6355172 C142.425,13.7922414 142.425,13.9437931 142.427069,14.097931 C142.440517,14.2515517 142.461724,14.3896552 142.507241,14.5158621 C142.544483,14.6415517 142.617931,14.7398276 142.71931,14.8210345 C142.811897,14.8981034 142.952586,14.9358621 143.132586,14.9358621 C143.273793,14.9358621 143.469828,14.912069 143.721207,14.8696552 L143.721207,15.542069 C143.512241,15.6005172 143.295,15.6268966 143.068966,15.6268966 C142.750345,15.6268966 142.495862,15.5844828 142.306034,15.5001724 C142.117241,15.417931 141.974483,15.3062069 141.878793,15.1681034 C141.777414,15.0253448 141.711207,14.8660345 141.679655,14.6725862 C141.63931,14.4843103 141.625862,14.277931 141.625862,14.0555172 L141.625862,13.4896552 Z M141.625862,9.50431034 C141.428276,9.73862069 141.132931,9.90206897 140.733103,9.98534483 C140.334828,10.0717241 139.892586,10.1301724 139.399655,10.1751724 L138.06,10.3024138 C137.667931,10.3422414 137.274828,10.4001724 136.882241,10.4756897 C136.490172,10.5568966 136.13431,10.6841379 135.827586,10.8677586 C135.512069,11.0472414 135.254483,11.2996552 135.061552,11.6125862 C134.862414,11.9265517 134.763621,12.3346552 134.763621,12.8384483 C134.763621,13.6355172 135.021207,14.2241379 135.522414,14.6084483 C136.020517,14.9958621 136.718276,15.1877586 137.596552,15.1877586 C138.508448,15.1877586 139.223793,15.0227586 139.759138,14.6932759 C140.289828,14.3653448 140.696897,13.9856897 140.974655,13.5641379 C141.252414,13.1348276 141.433448,12.7210345 141.51,12.3227586 C141.586552,11.9265517 141.625862,11.657069 141.625862,11.5153448 L141.625862,9.50431034 L141.625862,9.50431034 Z" id="Fill-8" fill="#1A1919"></path>
            <polygon id="Fill-9" fill="#1A1919" points="144.896379 15.6268966 145.691379 15.6268966 145.691379 0.653275862 144.896379 0.653275862"></polygon>
            <path d="M8.24224138,0.297413793 C12.5751724,0.297413793 16.0903448,3.80586207 16.0903448,8.1387931 C16.0903448,12.4717241 12.5751724,15.9822414 8.24224138,15.9822414 C3.91137931,15.9822414 0.397758621,12.4717241 0.397758621,8.1387931 C0.397758621,3.80586207 3.91137931,0.297413793 8.24224138,0.297413793" id="Fill-10" fill="#1A1919"></path>
            <path d="M25.6706897,0.297413793 C30.0046552,0.297413793 33.5172414,3.80586207 33.5172414,8.1387931 C33.5172414,12.4717241 30.0046552,15.9822414 25.6706897,15.9822414 C21.3408621,15.9822414 17.8272414,12.4717241 17.8272414,8.1387931 C17.8272414,3.80586207 21.3408621,0.297413793 25.6706897,0.297413793" id="Fill-11" fill="#1A1919"></path>
            <path d="M35.2577586,8.1387931 C35.2577586,12.4717241 38.7713793,15.9822414 43.1032759,15.9822414 C47.4387931,15.9822414 50.9477586,12.4717241 50.9477586,8.1387931 C50.9477586,3.80586207 47.4387931,0.297413793 43.1032759,0.297413793 C38.7713793,0.297413793 35.2577586,3.80586207 35.2577586,8.1387931" id="Fill-12" fill="#7CB742"></path>
            <path d="M148.114138,13.6081034 L148.393966,13.6081034 C148.545517,13.6081034 148.736379,13.6355172 148.736379,13.815 C148.736379,14.0187931 148.596724,14.0462069 148.409483,14.0462069 L148.114138,14.0462069 L148.114138,13.6081034 Z M147.784138,15.0186207 L148.114138,15.0186207 L148.114138,14.3053448 L148.322069,14.3053448 L148.728621,15.0186207 L149.075172,15.0186207 L148.628793,14.2893103 C148.876034,14.2696552 149.066897,14.1496552 149.066897,13.8434483 C149.066897,13.4808621 148.832069,13.3489655 148.413621,13.3489655 L147.784138,13.3489655 L147.784138,15.0186207 Z M147.253448,14.1858621 C147.253448,13.5082759 147.751552,13.017931 148.377414,13.017931 C148.995517,13.017931 149.501379,13.5082759 149.501379,14.1858621 C149.501379,14.867069 148.995517,15.3615517 148.377414,15.3615517 C147.751552,15.3615517 147.253448,14.867069 147.253448,14.1858621 Z M146.846897,14.1858621 C146.846897,15.0946552 147.568448,15.6801724 148.377414,15.6801724 C149.186897,15.6801724 149.907931,15.0946552 149.907931,14.1858621 C149.907931,13.2812069 149.186897,12.6993103 148.377414,12.6993103 C147.568448,12.6993103 146.846897,13.2812069 146.846897,14.1858621 L146.846897,14.1858621 Z" id="Fill-13" fill="#1A1919"></path>
        </g>
    </g>
</svg>